<svg width="285" height="74" viewBox="0 0 285 74" fill="none" xmlns="http://www.w3.org/2000/svg">
<path d="M6.27986 66V10.024H21.3205L32.0971 49.0986H32.2521L43.1062 10.024H58.3019V66H48.9984V21.9634H48.8434L36.2836 66H28.1431L15.7384 21.9634H15.5834V66H6.27986ZM79.7781 34.6782H88.3063C90.322 34.6782 91.976 34.4973 93.2682 34.1355C94.612 33.7737 95.6716 33.2569 96.4469 32.5849C97.2738 31.8613 97.8424 31.0085 98.1525 30.0265C98.4626 29.0444 98.6177 27.9332 98.6177 26.6927C98.6177 25.4523 98.4626 24.341 98.1525 23.359C97.8424 22.3769 97.2738 21.55 96.4469 20.878C95.6716 20.1544 94.612 19.6117 93.2682 19.2499C91.976 18.8881 90.322 18.7072 88.3063 18.7072H79.7781V34.6782ZM69.0791 66V10.024H89.5468C92.5446 10.024 95.2581 10.3599 97.6873 11.0318C100.168 11.6521 102.262 12.66 103.967 14.0555C105.673 15.3993 106.991 17.1308 107.921 19.2499C108.852 21.3174 109.317 23.7983 109.317 26.6927C109.317 29.5871 108.852 32.0939 107.921 34.2131C106.991 36.3322 105.673 38.0637 103.967 39.4075C102.262 40.7513 100.168 41.7592 97.6873 42.4311C95.2581 43.0514 92.5446 43.3615 89.5468 43.3615H79.7781V66H69.0791ZM146.479 26.15C145.186 23.359 143.688 21.3432 141.982 20.1028C140.276 18.8623 138.028 18.242 135.237 18.242C133.273 18.242 131.541 18.7331 130.042 19.7151C128.595 20.6455 127.381 21.9893 126.399 23.7466C125.417 25.5039 124.667 27.6489 124.15 30.1815C123.685 32.6625 123.452 35.4535 123.452 38.5547C123.452 44.4469 124.486 49.1245 126.554 52.5875C128.673 56.0504 131.593 57.7819 135.314 57.7819C138.829 57.7819 141.62 56.7482 143.688 54.6807C145.807 52.6133 146.918 49.9515 147.021 46.6952H136.4V37.7019H157.333V66H149.58V60.2628C147.306 62.7438 145.031 64.4494 142.757 65.3798C140.535 66.3101 137.95 66.7753 135.004 66.7753C131.18 66.7753 127.872 66.0775 125.081 64.682C122.289 63.2348 119.989 61.2707 118.18 58.7898C116.371 56.2572 115.002 53.3111 114.071 49.9515C113.193 46.5402 112.753 42.8446 112.753 38.8648C112.753 35.2985 113.115 31.758 113.839 28.2433C114.614 24.677 115.906 21.4983 117.715 18.7072C119.524 15.9162 121.902 13.642 124.848 11.8847C127.846 10.1273 131.593 9.24867 136.09 9.24867C138.881 9.24867 141.388 9.61047 143.61 10.3341C145.833 11.0577 147.771 12.0656 149.425 13.3577C151.13 14.5982 152.552 16.0971 153.689 17.8544C154.826 19.56 155.73 21.4466 156.402 23.514L146.479 26.15Z" fill="#005B97"/>
<rect width="4.97382" height="60.6806" transform="translate(171.099 6.46597)" fill="#FCB040"/>
<path d="M190.034 21V7.40051H193.688L196.306 16.8938H196.344L198.981 7.40051H202.672V21H200.412V10.3012H200.374L197.323 21H195.345L192.331 10.3012H192.294V21H190.034ZM209.02 16.3099C208.631 16.3852 208.242 16.4668 207.852 16.5547C207.463 16.6426 207.112 16.7619 206.798 16.9126C206.484 17.0508 206.226 17.2328 206.025 17.4589C205.837 17.6849 205.743 17.9674 205.743 18.3065C205.743 18.6706 205.85 18.9532 206.063 19.1541C206.276 19.355 206.546 19.4555 206.873 19.4555C207.061 19.4555 207.256 19.4241 207.457 19.3613C207.658 19.2859 207.852 19.198 208.041 19.0976C208.229 18.9971 208.405 18.8841 208.568 18.7585C208.744 18.633 208.895 18.52 209.02 18.4195V16.3099ZM209.265 21L209.114 20.1524C208.637 20.4789 208.16 20.7363 207.683 20.9247C207.218 21.1005 206.678 21.1884 206.063 21.1884C205.623 21.1884 205.234 21.1193 204.895 20.9812C204.569 20.8305 204.292 20.6358 204.066 20.3973C203.853 20.1461 203.69 19.8699 203.577 19.5685C203.464 19.2546 203.407 18.9281 203.407 18.589C203.407 17.4714 203.865 16.6113 204.782 16.0085C205.699 15.3932 207.112 14.9725 209.02 14.7465V13.9177C209.02 13.541 208.882 13.2522 208.606 13.0513C208.342 12.8504 208.003 12.7499 207.589 12.7499C207.036 12.7499 206.597 12.8755 206.27 13.1266C205.944 13.3652 205.667 13.6415 205.441 13.9554L203.935 12.8064C204.085 12.5427 204.292 12.3041 204.556 12.0906C204.82 11.8646 205.115 11.67 205.441 11.5067C205.78 11.3435 206.132 11.2179 206.496 11.13C206.86 11.0421 207.225 11.0044 207.589 11.017C208.242 11.0296 208.807 11.1049 209.284 11.243C209.761 11.3812 210.15 11.6072 210.452 11.9211C210.766 12.2225 210.992 12.6243 211.13 13.1266C211.281 13.6289 211.356 14.2442 211.356 14.9725V19.5873C211.356 19.8385 211.368 20.0833 211.394 20.3219C211.419 20.5605 211.469 20.7865 211.544 21H209.265ZM214.313 15.9143L211.544 11.2054H214.125L215.5 13.9177L216.894 11.2054H219.418L216.668 15.9143L219.644 21H217.157L215.519 17.9486L213.936 21H211.431L214.313 15.9143Z" fill="black"/>
<path d="M192.388 35.9191H194.46C194.95 35.9191 195.352 35.8752 195.665 35.7873C195.992 35.6994 196.249 35.5738 196.438 35.4105C196.639 35.2347 196.777 35.0275 196.852 34.789C196.927 34.5504 196.965 34.2804 196.965 33.979C196.965 33.6776 196.927 33.4077 196.852 33.1691C196.777 32.9305 196.639 32.7296 196.438 32.5663C196.249 32.3905 195.992 32.2587 195.665 32.1708C195.352 32.0829 194.95 32.0389 194.46 32.0389H192.388V35.9191ZM189.789 43.5288V29.9293H194.761C195.49 29.9293 196.149 30.0109 196.739 30.1742C197.342 30.3249 197.85 30.5697 198.265 30.9088C198.679 31.2353 198.999 31.6559 199.225 32.1708C199.451 32.6731 199.564 33.2758 199.564 33.979C199.564 34.6822 199.451 35.2912 199.225 35.8061C198.999 36.3209 198.679 36.7416 198.265 37.0681C197.85 37.3946 197.342 37.6395 196.739 37.8027C196.149 37.9534 195.49 38.0287 194.761 38.0287H192.388V43.5288H189.789ZM205.824 37.426C205.799 36.7479 205.617 36.2205 205.278 35.8438C204.951 35.4671 204.506 35.2787 203.941 35.2787C203.375 35.2787 202.923 35.4671 202.584 35.8438C202.258 36.2205 202.082 36.7479 202.057 37.426H205.824ZM202.057 39.0082C202.082 40.0253 202.289 40.7537 202.679 41.1932C203.068 41.6201 203.539 41.8336 204.091 41.8336C204.631 41.8336 205.058 41.7268 205.372 41.5134C205.686 41.2873 205.987 41.0048 206.276 40.6657L207.971 41.7206C207.519 42.4238 206.954 42.9323 206.276 43.2463C205.611 43.5602 204.807 43.7172 203.865 43.7172C203.225 43.7172 202.647 43.5979 202.132 43.3593C201.63 43.1207 201.197 42.7816 200.833 42.3421C200.481 41.9026 200.205 41.369 200.004 40.7411C199.816 40.1132 199.721 39.41 199.721 38.6315C199.721 37.8529 199.816 37.1497 200.004 36.5219C200.205 35.894 200.487 35.3603 200.851 34.9208C201.216 34.4813 201.661 34.1423 202.189 33.9037C202.716 33.6651 203.313 33.5458 203.978 33.5458C204.619 33.5458 205.184 33.6714 205.673 33.9225C206.176 34.1611 206.596 34.4876 206.935 34.902C207.275 35.3164 207.532 35.7998 207.708 36.3523C207.884 36.8923 207.971 37.4574 207.971 38.0476V39.0082H202.057ZM208.989 43.5288V33.7342H211.136V35.4105H211.174C211.462 34.8204 211.814 34.3683 212.228 34.0544C212.655 33.7404 213.22 33.5709 213.924 33.5458V36.0133C213.861 36.0007 213.798 35.9945 213.735 35.9945C213.672 35.9945 213.597 35.9945 213.509 35.9945C213.22 35.9945 212.944 36.0698 212.68 36.2205C212.417 36.3586 212.184 36.5219 211.983 36.7102C211.783 36.886 211.619 37.0618 211.494 37.2376C211.381 37.4009 211.324 37.5139 211.324 37.5767V43.5288H208.989ZM217.371 35.6177V43.5288H215.035V35.6177H213.679V33.7342H215.016V32.5287C215.016 32.0013 215.066 31.5617 215.167 31.2101C215.28 30.846 215.449 30.5572 215.675 30.3437C215.901 30.1302 216.19 29.9795 216.542 29.8916C216.894 29.7912 217.308 29.7409 217.785 29.7409H219.33V31.6245H218.689C218.199 31.6245 217.854 31.7062 217.653 31.8694C217.465 32.0326 217.371 32.3026 217.371 32.6793V33.7342H219.348V35.6177H217.371ZM225.602 38.6315C225.602 37.5264 225.445 36.7165 225.131 36.2016C224.817 35.6868 224.334 35.4294 223.681 35.4294C223.028 35.4294 222.544 35.6868 222.23 36.2016C221.917 36.7165 221.76 37.5264 221.76 38.6315C221.76 39.7365 221.917 40.5465 222.23 41.0613C222.544 41.5761 223.028 41.8336 223.681 41.8336C224.334 41.8336 224.817 41.5761 225.131 41.0613C225.445 40.5465 225.602 39.7365 225.602 38.6315ZM219.424 38.6315C219.424 37.8529 219.518 37.1497 219.706 36.5219C219.907 35.894 220.19 35.3603 220.554 34.9208C220.918 34.4813 221.364 34.1423 221.891 33.9037C222.419 33.6651 223.015 33.5458 223.681 33.5458C224.346 33.5458 224.943 33.6651 225.47 33.9037C225.998 34.1423 226.443 34.4813 226.808 34.9208C227.172 35.3603 227.448 35.894 227.636 36.5219C227.837 37.1497 227.938 37.8529 227.938 38.6315C227.938 39.41 227.837 40.1132 227.636 40.7411C227.448 41.369 227.172 41.9026 226.808 42.3421C226.443 42.7816 225.998 43.1207 225.47 43.3593C224.943 43.5979 224.346 43.7172 223.681 43.7172C223.015 43.7172 222.419 43.5979 221.891 43.3593C221.364 43.1207 220.918 42.7816 220.554 42.3421C220.19 41.9026 219.907 41.369 219.706 40.7411C219.518 40.1132 219.424 39.41 219.424 38.6315ZM228.691 43.5288V33.7342H230.838V35.4105H230.876C231.165 34.8204 231.517 34.3683 231.931 34.0544C232.358 33.7404 232.923 33.5709 233.626 33.5458V36.0133C233.563 36.0007 233.501 35.9945 233.438 35.9945C233.375 35.9945 233.3 35.9945 233.212 35.9945C232.923 35.9945 232.647 36.0698 232.383 36.2205C232.119 36.3586 231.887 36.5219 231.686 36.7102C231.485 36.886 231.322 37.0618 231.196 37.2376C231.083 37.4009 231.027 37.5139 231.027 37.5767V43.5288H228.691ZM234.361 43.5288V33.7342H236.489V34.789C236.929 34.3871 237.362 34.0795 237.789 33.866C238.216 33.6525 238.762 33.5458 239.428 33.5458C239.943 33.5458 240.42 33.6651 240.859 33.9037C241.299 34.1423 241.625 34.5001 241.839 34.9773C242.04 34.7764 242.253 34.588 242.479 34.4122C242.705 34.2364 242.95 34.0858 243.214 33.9602C243.49 33.8346 243.791 33.7342 244.118 33.6588C244.444 33.5835 244.809 33.5458 245.21 33.5458C245.462 33.5458 245.725 33.5897 246.001 33.6776C246.29 33.7655 246.554 33.9225 246.793 34.1485C247.031 34.362 247.226 34.6634 247.377 35.0527C247.54 35.4294 247.621 35.9066 247.621 36.4842V43.5288H245.286V36.6914C245.286 36.2896 245.198 35.9882 245.022 35.7873C244.846 35.5738 244.545 35.4545 244.118 35.4294C243.817 35.4294 243.484 35.5424 243.12 35.7684C242.755 35.9945 242.435 36.233 242.159 36.4842V43.5288H239.823V36.6914C239.823 36.2896 239.735 35.9882 239.56 35.7873C239.384 35.5738 239.082 35.4545 238.656 35.4294C238.354 35.4294 238.021 35.5424 237.657 35.7684C237.293 35.9945 236.973 36.233 236.697 36.4842V43.5288H234.361ZM254.045 38.8387C253.655 38.914 253.266 38.9956 252.877 39.0835C252.487 39.1714 252.136 39.2907 251.822 39.4414C251.508 39.5795 251.251 39.7616 251.05 39.9877C250.861 40.2137 250.767 40.4962 250.767 40.8353C250.767 41.1994 250.874 41.482 251.087 41.6829C251.301 41.8838 251.571 41.9843 251.897 41.9843C252.086 41.9843 252.28 41.9529 252.481 41.8901C252.682 41.8147 252.877 41.7268 253.065 41.6264C253.253 41.5259 253.429 41.4129 253.592 41.2873C253.768 41.1618 253.919 41.0487 254.045 40.9483V38.8387ZM254.289 43.5288L254.139 42.6812C253.662 43.0077 253.184 43.2651 252.707 43.4535C252.243 43.6293 251.703 43.7172 251.087 43.7172C250.648 43.7172 250.259 43.6481 249.919 43.51C249.593 43.3593 249.317 43.1646 249.091 42.9261C248.877 42.6749 248.714 42.3986 248.601 42.0973C248.488 41.7833 248.431 41.4569 248.431 41.1178C248.431 40.0002 248.89 39.14 249.806 38.5373C250.723 37.922 252.136 37.5013 254.045 37.2753V36.4465C254.045 36.0698 253.906 35.781 253.63 35.5801C253.366 35.3792 253.027 35.2787 252.613 35.2787C252.061 35.2787 251.621 35.4043 251.295 35.6554C250.968 35.894 250.692 36.1703 250.466 36.4842L248.959 35.3352C249.11 35.0715 249.317 34.8329 249.58 34.6194C249.844 34.3934 250.139 34.1988 250.466 34.0355C250.805 33.8723 251.156 33.7467 251.521 33.6588C251.885 33.5709 252.249 33.5332 252.613 33.5458C253.266 33.5584 253.831 33.6337 254.308 33.7718C254.785 33.91 255.175 34.136 255.476 34.4499C255.79 34.7513 256.016 35.1531 256.154 35.6554C256.305 36.1577 256.38 36.773 256.38 37.5013V42.1161C256.38 42.3673 256.393 42.6121 256.418 42.8507C256.443 43.0893 256.493 43.3153 256.569 43.5288H254.289ZM257.962 43.5288V33.7342H260.11V34.789C260.549 34.4876 261.014 34.205 261.504 33.9413C262.006 33.6776 262.546 33.5458 263.123 33.5458C264.103 33.5458 264.831 33.8409 265.308 34.4311C265.786 35.0213 266.024 35.8187 266.024 36.8232V43.5288H263.689V37.1623C263.689 36.4967 263.588 36.0447 263.387 35.8061C263.186 35.555 262.885 35.4294 262.483 35.4294C261.968 35.4294 261.522 35.5487 261.146 35.7873C260.782 36.0133 260.499 36.2393 260.298 36.4654V43.5288H257.962ZM273.1 36.9174C272.912 36.503 272.686 36.1514 272.422 35.8626C272.158 35.5738 271.744 35.4294 271.179 35.4294C270.526 35.4294 270.042 35.6868 269.728 36.2016C269.415 36.7165 269.258 37.5264 269.258 38.6315C269.258 39.7365 269.415 40.5465 269.728 41.0613C270.055 41.5761 270.564 41.8336 271.254 41.8336C271.769 41.8336 272.183 41.6829 272.497 41.3815C272.811 41.0801 273.088 40.7097 273.326 40.2702L275.097 41.2685C274.62 42.1475 274.073 42.7816 273.458 43.1709C272.843 43.5476 272.083 43.7297 271.179 43.7172C270.513 43.7172 269.917 43.5979 269.389 43.3593C268.862 43.1207 268.416 42.7816 268.052 42.3421C267.688 41.9026 267.405 41.369 267.204 40.7411C267.016 40.1132 266.922 39.41 266.922 38.6315C266.922 37.8529 267.016 37.1497 267.204 36.5219C267.405 35.894 267.688 35.3603 268.052 34.9208C268.416 34.4813 268.862 34.1423 269.389 33.9037C269.917 33.6651 270.513 33.5458 271.179 33.5458C272.108 33.5458 272.912 33.7781 273.59 34.2427C274.28 34.6948 274.764 35.3352 275.04 36.164L273.1 36.9174ZM281.689 37.426C281.664 36.7479 281.482 36.2205 281.143 35.8438C280.817 35.4671 280.371 35.2787 279.806 35.2787C279.241 35.2787 278.789 35.4671 278.45 35.8438C278.123 36.2205 277.947 36.7479 277.922 37.426H281.689ZM277.922 39.0082C277.947 40.0253 278.154 40.7537 278.544 41.1932C278.933 41.6201 279.404 41.8336 279.956 41.8336C280.496 41.8336 280.923 41.7268 281.237 41.5134C281.551 41.2873 281.853 41.0048 282.141 40.6657L283.837 41.7206C283.385 42.4238 282.819 42.9323 282.141 43.2463C281.476 43.5602 280.672 43.7172 279.73 43.7172C279.09 43.7172 278.512 43.5979 277.997 43.3593C277.495 43.1207 277.062 42.7816 276.698 42.3421C276.346 41.9026 276.07 41.369 275.869 40.7411C275.681 40.1132 275.586 39.41 275.586 38.6315C275.586 37.8529 275.681 37.1497 275.869 36.5219C276.07 35.894 276.352 35.3603 276.717 34.9208C277.081 34.4813 277.527 34.1423 278.054 33.9037C278.581 33.6651 279.178 33.5458 279.843 33.5458C280.484 33.5458 281.049 33.6714 281.539 33.9225C282.041 34.1611 282.462 34.4876 282.801 34.902C283.14 35.3164 283.397 35.7998 283.573 36.3523C283.749 36.8923 283.837 37.4574 283.837 38.0476V39.0082H277.922Z" fill="black"/>
<path d="M197.266 56.376C196.953 55.6979 196.588 55.2081 196.174 54.9068C195.76 54.6054 195.213 54.4547 194.535 54.4547C194.058 54.4547 193.637 54.574 193.273 54.8126C192.922 55.0386 192.627 55.3651 192.388 55.7921C192.149 56.219 191.967 56.7401 191.842 57.3554C191.729 57.9582 191.672 58.6363 191.672 59.3897C191.672 60.8212 191.923 61.9577 192.426 62.799C192.941 63.6403 193.65 64.061 194.554 64.061C195.408 64.061 196.086 63.8099 196.588 63.3076C197.103 62.8053 197.373 62.1586 197.398 61.3675H194.818V59.1825H199.904V66.0576H198.02V64.6637C197.467 65.2665 196.915 65.6809 196.362 65.9069C195.822 66.1329 195.195 66.246 194.479 66.246C193.55 66.246 192.746 66.0764 192.068 65.7374C191.39 65.3858 190.831 64.9086 190.391 64.3059C189.952 63.6906 189.619 62.9748 189.393 62.1586C189.18 61.3298 189.073 60.432 189.073 59.465C189.073 58.5986 189.161 57.7384 189.337 56.8845C189.525 56.0181 189.839 55.2458 190.278 54.5677C190.718 53.8896 191.296 53.3371 192.011 52.9102C192.74 52.4832 193.65 52.2697 194.742 52.2697C195.421 52.2697 196.03 52.3576 196.57 52.5334C197.11 52.7092 197.58 52.9541 197.982 53.268C198.397 53.5694 198.742 53.9336 199.018 54.3605C199.294 54.7749 199.514 55.2333 199.677 55.7355L197.266 56.376ZM201.373 66.0576V56.2629H203.52V57.9393H203.558C203.846 57.3492 204.198 56.8971 204.612 56.5832C205.039 56.2692 205.604 56.0997 206.308 56.0746V58.5421C206.245 58.5295 206.182 58.5233 206.119 58.5233C206.056 58.5233 205.981 58.5233 205.893 58.5233C205.604 58.5233 205.328 58.5986 205.064 58.7493C204.801 58.8874 204.568 59.0507 204.367 59.239C204.167 59.4148 204.003 59.5906 203.878 59.7664C203.765 59.9297 203.708 60.0427 203.708 60.1055V66.0576H201.373ZM212.467 61.1603C212.467 60.0552 212.31 59.2453 211.996 58.7304C211.682 58.2156 211.199 57.9582 210.546 57.9582C209.893 57.9582 209.409 58.2156 209.095 58.7304C208.781 59.2453 208.625 60.0552 208.625 61.1603C208.625 62.2653 208.781 63.0753 209.095 63.5901C209.409 64.1049 209.893 64.3624 210.546 64.3624C211.199 64.3624 211.682 64.1049 211.996 63.5901C212.31 63.0753 212.467 62.2653 212.467 61.1603ZM206.289 61.1603C206.289 60.3817 206.383 59.6785 206.571 59.0507C206.772 58.4228 207.055 57.8891 207.419 57.4496C207.783 57.0101 208.229 56.6711 208.756 56.4325C209.284 56.1939 209.88 56.0746 210.546 56.0746C211.211 56.0746 211.808 56.1939 212.335 56.4325C212.863 56.6711 213.308 57.0101 213.673 57.4496C214.037 57.8891 214.313 58.4228 214.501 59.0507C214.702 59.6785 214.803 60.3817 214.803 61.1603C214.803 61.9388 214.702 62.642 214.501 63.2699C214.313 63.8978 214.037 64.4314 213.673 64.8709C213.308 65.3104 212.863 65.6495 212.335 65.8881C211.808 66.1267 211.211 66.246 210.546 66.246C209.88 66.246 209.284 66.1267 208.756 65.8881C208.229 65.6495 207.783 65.3104 207.419 64.8709C207.055 64.4314 206.772 63.8978 206.571 63.2699C206.383 62.642 206.289 61.9388 206.289 61.1603ZM223.769 56.2629V66.0576H221.621V65.0028C221.182 65.3042 220.711 65.5867 220.209 65.8504C219.719 66.1141 219.185 66.246 218.608 66.246C217.628 66.246 216.9 65.9509 216.423 65.3607C215.945 64.7705 215.707 63.9731 215.707 62.9685V56.2629H218.042V62.6295C218.042 63.295 218.143 63.7533 218.344 64.0045C218.545 64.2431 218.846 64.3624 219.248 64.3624C219.763 64.3624 220.202 64.2494 220.566 64.0233C220.943 63.7847 221.232 63.5524 221.433 63.3264V56.2629H223.769ZM227.755 63.5336C227.994 63.7471 228.258 63.9417 228.547 64.1175C228.848 64.2807 229.187 64.3624 229.564 64.3624C230.267 64.3624 230.807 64.0924 231.184 63.5524C231.56 62.9999 231.749 62.2025 231.749 61.1603C231.749 60.118 231.56 59.3269 231.184 58.787C230.807 58.2344 230.267 57.9582 229.564 57.9582C229.313 57.9582 229.099 57.9896 228.923 58.0524C228.747 58.1026 228.59 58.1716 228.452 58.2596C228.327 58.3349 228.207 58.4291 228.094 58.5421C227.994 58.6425 227.881 58.7367 227.755 58.8246V63.5336ZM225.42 56.2629H227.661V57.1671C228 56.8406 228.371 56.5769 228.773 56.376C229.174 56.175 229.639 56.0746 230.166 56.0746C230.819 56.0746 231.391 56.2127 231.88 56.489C232.37 56.7527 232.778 57.1231 233.105 57.6003C233.431 58.0775 233.676 58.6425 233.839 59.2955C234.003 59.9485 234.084 60.658 234.084 61.424C234.084 62.0267 233.996 62.6169 233.821 63.1945C233.657 63.7722 233.406 64.287 233.067 64.7391C232.741 65.1911 232.333 65.5553 231.843 65.8316C231.353 66.1078 230.794 66.246 230.166 66.246C229.966 66.246 229.752 66.2146 229.526 66.1518C229.3 66.1015 229.074 66.0325 228.848 65.9446C228.634 65.8441 228.434 65.7248 228.245 65.5867C228.057 65.4486 227.906 65.3042 227.793 65.1535H227.755V69.6364H225.42V56.2629Z" fill="black"/>
</svg>
