<svg width="286" height="287" viewBox="0 0 286 287" fill="none" xmlns="http://www.w3.org/2000/svg">
<path d="M113.95 227.9C176.882 227.9 227.899 176.883 227.899 113.95C227.899 51.0171 176.882 0 113.95 0C51.017 0 0 51.0171 0 113.95C0 176.883 51.017 227.9 113.95 227.9Z" fill="#F3F4F6"/>
<g filter="url(#filter0_d_347_31279)">
<path d="M62.2998 51.6611C62.2998 51.6611 62.2998 51.6611 62.2998 51.6611H267.409C269.424 51.6611 271.356 52.4615 272.781 53.8861C274.205 55.3108 275.006 57.243 275.006 59.2578V97.2411C275.006 99.2558 274.205 101.188 272.781 102.613C271.356 104.037 269.424 104.838 267.409 104.838H62.2998C60.285 104.838 58.3528 104.037 56.9281 102.613C55.5035 101.188 54.7031 99.2558 54.7031 97.2411V59.2578C54.7031 57.243 55.5035 55.3108 56.9281 53.8861C58.3528 52.4615 60.285 51.6611 62.2998 51.6611C62.2998 51.6611 62.2998 51.6611 62.2998 51.6611Z" fill="white"/>
</g>
<path d="M159.537 63.8149H120.035C117.517 63.8149 115.477 65.8556 115.477 68.3729C115.477 70.8902 117.517 72.9309 120.035 72.9309H159.537C162.054 72.9309 164.095 70.8902 164.095 68.3729C164.095 65.8556 162.054 63.8149 159.537 63.8149Z" fill="#005B97"/>
<path d="M186.885 83.5669H120.035C117.517 83.5669 115.477 85.6076 115.477 88.1249C115.477 90.6422 117.517 92.6829 120.035 92.6829H186.885C189.402 92.6829 191.443 90.6422 191.443 88.1249C191.443 85.6076 189.402 83.5669 186.885 83.5669Z" fill="#005B97" fill-opacity="0.14"/>
<path d="M103.318 78.2495C103.318 66.0825 93.4551 56.2192 81.2881 56.2192C69.1211 56.2192 59.2578 66.0825 59.2578 78.2495C59.2578 90.4165 69.1211 100.28 81.2881 100.28C93.4551 100.28 103.318 90.4165 103.318 78.2495Z" fill="#005B97"/>
<path d="M79.9204 85.3802C81.8064 85.3799 83.6381 84.7488 85.1241 83.5874L89.796 88.2593L91.2986 86.7567L86.6252 82.0832C87.7994 80.5651 88.4247 78.6941 88.3994 76.775C88.3741 74.856 87.6996 73.0021 86.4857 71.5155C85.2719 70.029 83.5904 68.9973 81.7152 68.5887C79.84 68.1802 77.8817 68.4188 76.1594 69.2656C74.4372 70.1125 73.0525 71.5177 72.2312 73.2523C71.4098 74.9869 71.2001 76.9485 71.6363 78.8174C72.0725 80.6864 73.1289 82.3525 74.6332 83.5443C76.1376 84.736 78.0012 85.3832 79.9204 85.3802ZM79.9204 70.4998C81.1825 70.4998 82.4162 70.8741 83.4656 71.5753C84.515 72.2764 85.3329 73.273 85.8158 74.439C86.2988 75.6051 86.4252 76.8881 86.179 78.1259C85.9327 79.3638 85.325 80.5008 84.4326 81.3932C83.5401 82.2856 82.4031 82.8934 81.1653 83.1396C79.9275 83.3858 78.6444 83.2595 77.4784 82.7765C76.3124 82.2935 75.3158 81.4756 74.6146 80.4262C73.9135 79.3768 73.5392 78.1431 73.5392 76.881C73.5392 75.1886 74.2115 73.5655 75.4082 72.3688C76.6049 71.1721 78.228 70.4998 79.9204 70.4998Z" fill="white"/>
<g filter="url(#filter1_d_347_31279)">
<path d="M244.612 120.03H39.5029C35.3074 120.03 31.9062 123.431 31.9062 127.626V165.61C31.9062 169.805 35.3074 173.206 39.5029 173.206H244.612C248.808 173.206 252.209 169.805 252.209 165.61V127.626C252.209 123.431 248.808 120.03 244.612 120.03Z" fill="white"/>
</g>
<path d="M136.74 132.185H97.2377C94.7204 132.185 92.6797 134.225 92.6797 136.743C92.6797 139.26 94.7204 141.301 97.2377 141.301H136.74C139.258 141.301 141.298 139.26 141.298 136.743C141.298 134.225 139.258 132.185 136.74 132.185Z" fill="#005B97"/>
<path d="M164.088 151.936H97.2377C94.7204 151.936 92.6797 153.977 92.6797 156.494C92.6797 159.011 94.7204 161.052 97.2377 161.052H164.088C166.605 161.052 168.646 159.011 168.646 156.494C168.646 153.977 166.605 151.936 164.088 151.936Z" fill="#005B97" fill-opacity="0.14"/>
<path d="M80.5215 146.617C80.5215 134.45 70.6582 124.586 58.4912 124.586C46.3242 124.586 36.4609 134.45 36.4609 146.617C36.4609 158.784 46.3242 168.647 58.4912 168.647C70.6582 168.647 80.5215 158.784 80.5215 146.617Z" fill="#005B97"/>
<path d="M57.1235 153.748C59.0095 153.748 60.8413 153.117 62.3272 151.956L66.9991 156.627L68.5018 155.125L63.8283 150.451C65.0025 148.933 65.6279 147.062 65.6025 145.143C65.5772 143.224 64.9027 141.37 63.6889 139.884C62.475 138.397 60.7935 137.365 58.9183 136.957C57.0431 136.548 55.0848 136.787 53.3625 137.634C51.6403 138.481 50.2557 139.886 49.4343 141.62C48.6129 143.355 48.4033 145.317 48.8395 147.186C49.2757 149.055 50.332 150.721 51.8364 151.912C53.3407 153.104 55.2043 153.751 57.1235 153.748ZM57.1235 138.868C58.3856 138.868 59.6193 139.242 60.6687 139.943C61.7181 140.645 62.536 141.641 63.019 142.807C63.5019 143.973 63.6283 145.256 63.3821 146.494C63.1359 147.732 62.5281 148.869 61.6357 149.761C60.7433 150.654 59.6062 151.262 58.3684 151.508C57.1306 151.754 55.8476 151.628 54.6815 151.145C53.5155 150.662 52.5189 149.844 51.8178 148.794C51.1166 147.745 50.7423 146.511 50.7423 145.249C50.7423 143.557 51.4146 141.934 52.6113 140.737C53.808 139.54 55.4311 138.868 57.1235 138.868Z" fill="white"/>
<path d="M11.7867 280.9V264.121H13.7523L24.8504 277.904H23.8197V264.121H26.2167V280.9H24.2511L13.153 267.117H14.1837V280.9H11.7867ZM36.3445 281.044C35.0661 281.044 33.9316 280.764 32.9408 280.205C31.95 279.645 31.167 278.878 30.5917 277.904C30.0165 276.913 29.7288 275.794 29.7288 274.548C29.7288 273.285 30.0165 272.167 30.5917 271.192C31.167 270.217 31.95 269.458 32.9408 268.915C33.9316 268.356 35.0661 268.076 36.3445 268.076C37.607 268.076 38.7336 268.356 39.7243 268.915C40.7311 269.458 41.5141 270.217 42.0734 271.192C42.6487 272.151 42.9363 273.269 42.9363 274.548C42.9363 275.81 42.6487 276.929 42.0734 277.904C41.5141 278.878 40.7311 279.645 39.7243 280.205C38.7336 280.764 37.607 281.044 36.3445 281.044ZM36.3445 279.03C37.1595 279.03 37.8866 278.846 38.5258 278.479C39.181 278.111 39.6924 277.592 40.0599 276.921C40.4274 276.234 40.6112 275.443 40.6112 274.548C40.6112 273.637 40.4274 272.854 40.0599 272.199C39.6924 271.528 39.181 271.008 38.5258 270.641C37.8866 270.273 37.1595 270.089 36.3445 270.089C35.5296 270.089 34.8025 270.273 34.1633 270.641C33.5241 271.008 33.0127 271.528 32.6292 272.199C32.2457 272.854 32.0539 273.637 32.0539 274.548C32.0539 275.443 32.2457 276.234 32.6292 276.921C33.0127 277.592 33.5241 278.111 34.1633 278.479C34.8025 278.846 35.5296 279.03 36.3445 279.03ZM64.9245 264.121H67.3215V280.9H64.9245V264.121ZM55.2885 280.9H52.8915V264.121H55.2885V280.9ZM65.1402 273.421H55.0488V271.336H65.1402V273.421ZM72.0082 280.9V268.196H74.3093V280.9H72.0082ZM73.1587 265.751C72.7113 265.751 72.3357 265.607 72.0321 265.319C71.7445 265.032 71.6007 264.68 71.6007 264.265C71.6007 263.833 71.7445 263.474 72.0321 263.186C72.3357 262.898 72.7113 262.755 73.1587 262.755C73.6062 262.755 73.9737 262.898 74.2613 263.186C74.565 263.458 74.7168 263.801 74.7168 264.217C74.7168 264.648 74.5729 265.016 74.2853 265.319C73.9977 265.607 73.6221 265.751 73.1587 265.751ZM82.3463 281.044C81.2917 281.044 80.2849 280.9 79.3261 280.612C78.3833 280.325 77.6402 279.973 77.0969 279.558L78.0557 277.736C78.599 278.103 79.2702 278.415 80.0692 278.671C80.8682 278.926 81.6832 279.054 82.5141 279.054C83.5848 279.054 84.3518 278.902 84.8153 278.599C85.2947 278.295 85.5344 277.872 85.5344 277.328C85.5344 276.929 85.3905 276.617 85.1029 276.394C84.8153 276.17 84.4317 276.002 83.9523 275.89C83.4889 275.778 82.9696 275.682 82.3943 275.603C81.819 275.507 81.2437 275.395 80.6684 275.267C80.0932 275.123 79.5658 274.931 79.0864 274.692C78.607 274.436 78.2235 274.092 77.9359 273.661C77.6482 273.214 77.5044 272.622 77.5044 271.887C77.5044 271.12 77.7201 270.449 78.1516 269.874C78.5831 269.298 79.1903 268.859 79.9733 268.555C80.7723 268.236 81.7151 268.076 82.8018 268.076C83.6327 268.076 84.4717 268.18 85.3186 268.388C86.1815 268.579 86.8847 268.859 87.428 269.227L86.4452 271.048C85.8699 270.665 85.2707 270.401 84.6475 270.257C84.0242 270.113 83.401 270.041 82.7778 270.041C81.7711 270.041 81.02 270.209 80.5246 270.545C80.0292 270.864 79.7816 271.28 79.7816 271.791C79.7816 272.223 79.9254 272.558 80.213 272.798C80.5166 273.022 80.9002 273.198 81.3636 273.325C81.843 273.453 82.3703 273.565 82.9456 273.661C83.5209 273.741 84.0962 273.853 84.6714 273.997C85.2467 274.124 85.7661 274.308 86.2295 274.548C86.7089 274.788 87.0924 275.123 87.38 275.555C87.6837 275.986 87.8355 276.561 87.8355 277.28C87.8355 278.047 87.6118 278.711 87.1643 279.27C86.7169 279.829 86.0857 280.269 85.2707 280.588C84.4557 280.892 83.4809 281.044 82.3463 281.044ZM95.0739 281.044C93.7955 281.044 92.8047 280.7 92.1016 280.013C91.3985 279.326 91.0469 278.343 91.0469 277.065V265.415H93.348V276.969C93.348 277.656 93.5158 278.183 93.8514 278.551C94.2029 278.918 94.6983 279.102 95.3375 279.102C96.0566 279.102 96.6559 278.902 97.1353 278.503L97.8544 280.157C97.5028 280.46 97.0793 280.684 96.584 280.828C96.1046 280.972 95.6012 281.044 95.0739 281.044ZM88.8896 270.089V268.196H96.9915V270.089H88.8896ZM105.656 281.044C104.378 281.044 103.243 280.764 102.252 280.205C101.262 279.645 100.479 278.878 99.9034 277.904C99.3282 276.913 99.0405 275.794 99.0405 274.548C99.0405 273.285 99.3282 272.167 99.9034 271.192C100.479 270.217 101.262 269.458 102.252 268.915C103.243 268.356 104.378 268.076 105.656 268.076C106.919 268.076 108.045 268.356 109.036 268.915C110.043 269.458 110.826 270.217 111.385 271.192C111.96 272.151 112.248 273.269 112.248 274.548C112.248 275.81 111.96 276.929 111.385 277.904C110.826 278.878 110.043 279.645 109.036 280.205C108.045 280.764 106.919 281.044 105.656 281.044ZM105.656 279.03C106.471 279.03 107.198 278.846 107.838 278.479C108.493 278.111 109.004 277.592 109.372 276.921C109.739 276.234 109.923 275.443 109.923 274.548C109.923 273.637 109.739 272.854 109.372 272.199C109.004 271.528 108.493 271.008 107.838 270.641C107.198 270.273 106.471 270.089 105.656 270.089C104.841 270.089 104.114 270.273 103.475 270.641C102.836 271.008 102.324 271.528 101.941 272.199C101.557 272.854 101.366 273.637 101.366 274.548C101.366 275.443 101.557 276.234 101.941 276.921C102.324 277.592 102.836 278.111 103.475 278.479C104.114 278.846 104.841 279.03 105.656 279.03ZM115.43 280.9V268.196H117.636V271.647L117.42 270.785C117.771 269.906 118.363 269.235 119.194 268.771C120.025 268.308 121.047 268.076 122.262 268.076V270.305C122.166 270.289 122.07 270.281 121.974 270.281C121.894 270.281 121.814 270.281 121.734 270.281C120.504 270.281 119.529 270.649 118.81 271.384C118.091 272.119 117.731 273.182 117.731 274.572V280.9H115.43ZM126.164 285.694C125.557 285.694 124.966 285.59 124.39 285.382C123.815 285.191 123.32 284.903 122.904 284.519L123.887 282.794C124.207 283.097 124.558 283.329 124.942 283.489C125.325 283.648 125.733 283.728 126.164 283.728C126.724 283.728 127.187 283.585 127.555 283.297C127.922 283.009 128.266 282.498 128.585 281.763L129.376 280.013L129.616 279.725L134.602 268.196H136.855L130.695 282.17C130.327 283.065 129.912 283.768 129.448 284.28C129.001 284.791 128.505 285.151 127.962 285.358C127.419 285.582 126.819 285.694 126.164 285.694ZM129.184 281.307L123.384 268.196H125.781L130.719 279.51L129.184 281.307ZM143.234 280.9L150.833 264.121H153.206L160.828 280.9H158.312L151.528 265.463H152.487L145.703 280.9H143.234ZM146.47 276.705L147.118 274.788H156.562L157.257 276.705H146.47ZM165.672 280.9L160.111 268.196H162.508L167.446 279.701H166.295L171.329 268.196H173.582L168.021 280.9H165.672ZM183.218 280.9V278.215L183.098 277.712V273.134C183.098 272.159 182.811 271.408 182.235 270.88C181.676 270.337 180.829 270.065 179.695 270.065C178.943 270.065 178.208 270.193 177.489 270.449C176.77 270.689 176.163 271.016 175.668 271.432L174.709 269.706C175.364 269.179 176.147 268.779 177.058 268.507C177.985 268.22 178.951 268.076 179.958 268.076C181.7 268.076 183.042 268.499 183.985 269.346C184.928 270.193 185.399 271.488 185.399 273.23V280.9H183.218ZM179.047 281.044C178.104 281.044 177.274 280.884 176.554 280.564C175.851 280.245 175.308 279.805 174.924 279.246C174.541 278.671 174.349 278.024 174.349 277.304C174.349 276.617 174.509 275.994 174.829 275.435C175.164 274.875 175.7 274.428 176.435 274.092C177.186 273.757 178.192 273.589 179.455 273.589H183.482V275.243H179.551C178.4 275.243 177.625 275.435 177.226 275.818C176.826 276.202 176.626 276.665 176.626 277.209C176.626 277.832 176.874 278.335 177.369 278.719C177.865 279.086 178.552 279.27 179.431 279.27C180.294 279.27 181.045 279.078 181.684 278.695C182.339 278.311 182.811 277.752 183.098 277.017L183.554 278.599C183.25 279.35 182.715 279.949 181.948 280.397C181.181 280.828 180.214 281.044 179.047 281.044ZM189.658 280.9V268.196H191.959V280.9H189.658ZM190.808 265.751C190.361 265.751 189.985 265.607 189.682 265.319C189.394 265.032 189.25 264.68 189.25 264.265C189.25 263.833 189.394 263.474 189.682 263.186C189.985 262.898 190.361 262.755 190.808 262.755C191.256 262.755 191.623 262.898 191.911 263.186C192.215 263.458 192.366 263.801 192.366 264.217C192.366 264.648 192.223 265.016 191.935 265.319C191.647 265.607 191.272 265.751 190.808 265.751ZM196.353 280.9V263.114H198.654V280.9H196.353ZM210.933 280.9V278.215L210.814 277.712V273.134C210.814 272.159 210.526 271.408 209.951 270.88C209.391 270.337 208.544 270.065 207.41 270.065C206.659 270.065 205.924 270.193 205.205 270.449C204.485 270.689 203.878 271.016 203.383 271.432L202.424 269.706C203.079 269.179 203.862 268.779 204.773 268.507C205.7 268.22 206.667 268.076 207.673 268.076C209.415 268.076 210.758 268.499 211.7 269.346C212.643 270.193 213.115 271.488 213.115 273.23V280.9H210.933ZM206.763 281.044C205.82 281.044 204.989 280.884 204.27 280.564C203.567 280.245 203.023 279.805 202.64 279.246C202.256 278.671 202.065 278.024 202.065 277.304C202.065 276.617 202.224 275.994 202.544 275.435C202.879 274.875 203.415 274.428 204.15 274.092C204.901 273.757 205.908 273.589 207.17 273.589H211.197V275.243H207.266C206.115 275.243 205.34 275.435 204.941 275.818C204.541 276.202 204.342 276.665 204.342 277.209C204.342 277.832 204.589 278.335 205.085 278.719C205.58 279.086 206.267 279.27 207.146 279.27C208.009 279.27 208.76 279.078 209.399 278.695C210.055 278.311 210.526 277.752 210.814 277.017L211.269 278.599C210.965 279.35 210.43 279.949 209.663 280.397C208.896 280.828 207.929 281.044 206.763 281.044ZM224.109 281.044C223.022 281.044 222.039 280.804 221.16 280.325C220.297 279.829 219.61 279.102 219.099 278.143C218.604 277.185 218.356 275.986 218.356 274.548C218.356 273.11 218.612 271.911 219.123 270.952C219.65 269.994 220.345 269.274 221.208 268.795C222.087 268.316 223.054 268.076 224.109 268.076C225.355 268.076 226.458 268.348 227.417 268.891C228.375 269.434 229.134 270.193 229.694 271.168C230.253 272.127 230.533 273.253 230.533 274.548C230.533 275.842 230.253 276.977 229.694 277.952C229.134 278.926 228.375 279.685 227.417 280.229C226.458 280.772 225.355 281.044 224.109 281.044ZM217.373 280.9V263.114H219.674V271.576L219.435 274.524L219.578 277.472V280.9H217.373ZM223.917 279.03C224.732 279.03 225.459 278.846 226.098 278.479C226.753 278.111 227.265 277.592 227.632 276.921C228.016 276.234 228.208 275.443 228.208 274.548C228.208 273.637 228.016 272.854 227.632 272.199C227.265 271.528 226.753 271.008 226.098 270.641C225.459 270.273 224.732 270.089 223.917 270.089C223.118 270.089 222.391 270.273 221.736 270.641C221.096 271.008 220.585 271.528 220.202 272.199C219.834 272.854 219.65 273.637 219.65 274.548C219.65 275.443 219.834 276.234 220.202 276.921C220.585 277.592 221.096 278.111 221.736 278.479C222.391 278.846 223.118 279.03 223.917 279.03ZM233.712 280.9V263.114H236.013V280.9H233.712ZM246.064 281.044C244.705 281.044 243.507 280.764 242.468 280.205C241.445 279.645 240.646 278.878 240.071 277.904C239.512 276.929 239.232 275.81 239.232 274.548C239.232 273.285 239.504 272.167 240.047 271.192C240.607 270.217 241.366 269.458 242.324 268.915C243.299 268.356 244.394 268.076 245.608 268.076C246.839 268.076 247.925 268.348 248.868 268.891C249.811 269.434 250.546 270.201 251.073 271.192C251.617 272.167 251.888 273.309 251.888 274.62C251.888 274.716 251.88 274.828 251.864 274.955C251.864 275.083 251.856 275.203 251.84 275.315H241.03V273.661H250.642L249.707 274.236C249.723 273.421 249.555 272.694 249.204 272.055C248.852 271.416 248.365 270.92 247.742 270.569C247.134 270.201 246.423 270.018 245.608 270.018C244.809 270.018 244.098 270.201 243.475 270.569C242.852 270.92 242.364 271.424 242.013 272.079C241.661 272.718 241.485 273.453 241.485 274.284V274.668C241.485 275.515 241.677 276.274 242.061 276.945C242.46 277.6 243.012 278.111 243.715 278.479C244.418 278.846 245.225 279.03 246.136 279.03C246.887 279.03 247.566 278.902 248.173 278.647C248.796 278.391 249.34 278.008 249.803 277.496L251.073 278.982C250.498 279.653 249.779 280.165 248.916 280.516C248.069 280.868 247.118 281.044 246.064 281.044ZM255.204 275.603L254.772 264.121H257.481L257.025 275.603H255.204ZM256.138 281.044C255.691 281.044 255.315 280.892 255.012 280.588C254.708 280.285 254.556 279.925 254.556 279.51C254.556 279.062 254.708 278.695 255.012 278.407C255.315 278.119 255.691 277.976 256.138 277.976C256.586 277.976 256.953 278.119 257.241 278.407C257.529 278.695 257.672 279.062 257.672 279.51C257.672 279.925 257.529 280.285 257.241 280.588C256.953 280.892 256.586 281.044 256.138 281.044ZM261.617 275.603L261.186 264.121H263.895L263.439 275.603H261.617ZM262.552 281.044C262.105 281.044 261.729 280.892 261.426 280.588C261.122 280.285 260.97 279.925 260.97 279.51C260.97 279.062 261.122 278.695 261.426 278.407C261.729 278.119 262.105 277.976 262.552 277.976C263 277.976 263.367 278.119 263.655 278.407C263.942 278.695 264.086 279.062 264.086 279.51C264.086 279.925 263.942 280.285 263.655 280.588C263.367 280.892 263 281.044 262.552 281.044Z" fill="#7B849A"/>
<defs>
<filter id="filter0_d_347_31279" x="52.1917" y="49.1497" width="232.862" height="65.7338" filterUnits="userSpaceOnUse" color-interpolation-filters="sRGB">
<feFlood flood-opacity="0" result="BackgroundImageFix"/>
<feColorMatrix in="SourceAlpha" type="matrix" values="0 0 0 0 0 0 0 0 0 0 0 0 0 0 0 0 0 0 127 0" result="hardAlpha"/>
<feOffset dx="3.76711" dy="3.76711"/>
<feGaussianBlur stdDeviation="3.13926"/>
<feColorMatrix type="matrix" values="0 0 0 0 0.230539 0 0 0 0 0.370572 0 0 0 0 0.482993 0 0 0 0.1 0"/>
<feBlend mode="normal" in2="BackgroundImageFix" result="effect1_dropShadow_347_31279"/>
<feBlend mode="normal" in="SourceGraphic" in2="effect1_dropShadow_347_31279" result="shape"/>
</filter>
<filter id="filter1_d_347_31279" x="29.3948" y="117.518" width="232.862" height="65.7338" filterUnits="userSpaceOnUse" color-interpolation-filters="sRGB">
<feFlood flood-opacity="0" result="BackgroundImageFix"/>
<feColorMatrix in="SourceAlpha" type="matrix" values="0 0 0 0 0 0 0 0 0 0 0 0 0 0 0 0 0 0 127 0" result="hardAlpha"/>
<feOffset dx="3.76711" dy="3.76711"/>
<feGaussianBlur stdDeviation="3.13926"/>
<feColorMatrix type="matrix" values="0 0 0 0 0.230539 0 0 0 0 0.370572 0 0 0 0 0.482993 0 0 0 0.1 0"/>
<feBlend mode="normal" in2="BackgroundImageFix" result="effect1_dropShadow_347_31279"/>
<feBlend mode="normal" in="SourceGraphic" in2="effect1_dropShadow_347_31279" result="shape"/>
</filter>
</defs>
</svg>
