<svg width="275" height="330" viewBox="0 0 275 330" fill="none" xmlns="http://www.w3.org/2000/svg">
<mask id="mask0_433_1183" style="mask-type:luminance" maskUnits="userSpaceOnUse" x="27" y="58" width="227" height="129">
<path fill-rule="evenodd" clip-rule="evenodd" d="M83.3872 80.872H54.4352C50.6732 80.872 47.5962 83.959 47.5962 87.733C47.5962 91.507 50.6732 94.594 54.4352 94.594H69.1692H73.4872C77.2492 94.594 80.3262 97.682 80.3262 101.456C80.3262 103.342 79.5552 105.061 78.3152 106.3C77.0802 107.545 75.3662 108.318 73.4872 108.318H64.2752H59.1892H34.3742C30.6122 108.318 27.5352 111.406 27.5352 115.179C27.5352 118.952 30.6122 122.04 34.3742 122.04H52.1392C46.7762 134.685 43.8062 148.598 43.8062 163.21C43.8062 168.511 44.1982 173.721 44.9502 178.812C45.2642 180.939 45.6432 183.048 46.0862 185.134C58.9892 183.154 72.6762 181.561 86.9652 180.399L88.0402 181.383L89.0522 180.235C106.219 178.895 124.237 178.181 142.821 178.181C182.305 178.181 219.253 181.401 250.844 187C252.062 181.704 252.883 176.255 253.271 170.684C253.448 168.214 253.535 165.721 253.535 163.21C253.535 105.102 206.588 58 148.671 58C123.987 58 101.3 66.557 83.3872 80.872Z" fill="white"/>
</mask>
<g mask="url(#mask0_433_1183)">
<path fill-rule="evenodd" clip-rule="evenodd" d="M22.5352 192H258.535V53H22.5352V192Z" fill="#F1F2F7"/>
</g>
<mask id="mask1_433_1183" style="mask-type:luminance" maskUnits="userSpaceOnUse" x="2" y="108" width="19" height="14">
<path fill-rule="evenodd" clip-rule="evenodd" d="M9.46216 108C5.65216 108 2.53516 111.151 2.53516 115C2.53516 118.849 5.65216 122 9.46216 122H13.6072C17.4182 122 20.5352 118.849 20.5352 115C20.5352 111.151 17.4182 108 13.6072 108H9.46216Z" fill="white"/>
</mask>
<g mask="url(#mask1_433_1183)">
<path fill-rule="evenodd" clip-rule="evenodd" d="M-2.46484 127H25.5352V103H-2.46484V127Z" fill="#F1F2F7"/>
</g>
<mask id="mask2_433_1183" style="mask-type:luminance" maskUnits="userSpaceOnUse" x="45" y="178" width="228" height="90">
<path fill-rule="evenodd" clip-rule="evenodd" d="M88.8984 180.373L87.8854 181.514L86.8104 180.536C72.5254 181.691 58.8424 183.272 45.9414 185.241C55.9924 232.523 98.0924 268 148.501 268C172.104 268 193.883 260.218 211.41 247.091H230.067C233.827 247.091 236.904 244.022 236.904 240.273C236.904 238.401 236.133 236.691 234.894 235.46C233.658 234.223 231.944 233.455 230.067 233.455H221.953C218.192 233.455 215.115 230.387 215.115 226.637C215.115 224.764 215.886 223.055 217.125 221.823C218.361 220.586 220.075 219.819 221.953 219.819H265.626C269.387 219.819 272.463 216.751 272.463 213C272.463 211.127 271.692 209.418 270.453 208.187C269.213 206.95 267.507 206.182 265.626 206.182H244.211C246.946 200.105 249.116 193.723 250.651 187.096C219.067 181.533 182.128 178.332 142.653 178.332C124.074 178.332 106.059 179.041 88.8984 180.373Z" fill="white"/>
</mask>
<g mask="url(#mask2_433_1183)">
<path fill-rule="evenodd" clip-rule="evenodd" d="M40.9414 273H277.462V173.332H40.9414V273Z" fill="#E8EBF2"/>
</g>
<mask id="mask3_433_1183" style="mask-type:luminance" maskUnits="userSpaceOnUse" x="88" y="166" width="165" height="21">
<path fill-rule="evenodd" clip-rule="evenodd" d="M232.31 179.304L221.752 169.627L210.454 178.013L205.718 171.488L187.022 178.013L143.953 171.488L118.918 178.4C126.573 178.144 134.351 178.013 142.232 178.013C181.663 178.013 218.563 181.294 250.113 187C251.327 181.602 252.148 176.05 252.535 170.373L248.961 166L232.31 179.304ZM88.5352 180.106C98.3992 179.32 108.544 178.746 118.918 178.4L100.424 166.332L88.5352 180.106Z" fill="white"/>
</mask>
<g mask="url(#mask3_433_1183)">
<path fill-rule="evenodd" clip-rule="evenodd" d="M83.5352 192H257.535V161H83.5352V192Z" fill="#E0E2EE"/>
</g>
<mask id="mask4_433_1183" style="mask-type:luminance" maskUnits="userSpaceOnUse" x="86" y="180" width="3" height="2">
<path fill-rule="evenodd" clip-rule="evenodd" d="M86.5352 180.144L87.5652 181.001L88.5352 180C87.8672 180.044 87.1982 180.092 86.5352 180.144Z" fill="white"/>
</mask>
<g mask="url(#mask4_433_1183)">
<path fill-rule="evenodd" clip-rule="evenodd" d="M81.5352 186H93.5352V175H81.5352V186Z" fill="#F1F2F7"/>
</g>
<mask id="mask5_433_1183" style="mask-type:luminance" maskUnits="userSpaceOnUse" x="44" y="162" width="43" height="23">
<path fill-rule="evenodd" clip-rule="evenodd" d="M44.5352 178.668C44.8492 180.799 45.2282 182.911 45.6692 185C58.5682 183.017 72.2512 181.422 86.5352 180.258L66.6442 162L44.5352 178.668Z" fill="white"/>
</mask>
<g mask="url(#mask5_433_1183)">
<path fill-rule="evenodd" clip-rule="evenodd" d="M39.5352 190H91.5352V157H39.5352V190Z" fill="#E0E2EE"/>
</g>
<mask id="mask6_433_1183" style="mask-type:luminance" maskUnits="userSpaceOnUse" x="111" y="217" width="79" height="8">
<path fill-rule="evenodd" clip-rule="evenodd" d="M111.254 221.218C111.254 223.15 128.715 224.718 150.255 224.718C171.794 224.718 189.255 223.15 189.255 221.218C189.255 219.286 171.794 217.718 150.255 217.718C128.715 217.718 111.254 219.286 111.254 221.218Z" fill="white"/>
</mask>
<g mask="url(#mask6_433_1183)">
<path fill-rule="evenodd" clip-rule="evenodd" d="M106.254 229.718H194.254V212.718H106.254V229.718Z" fill="#D8DBEA"/>
</g>
<mask id="mask7_433_1183" style="mask-type:luminance" maskUnits="userSpaceOnUse" x="243" y="233" width="15" height="14">
<path fill-rule="evenodd" clip-rule="evenodd" d="M243.535 240C243.535 243.85 246.685 247 250.535 247C254.385 247 257.535 243.85 257.535 240C257.535 236.151 254.385 233 250.535 233C246.685 233 243.535 236.151 243.535 240Z" fill="white"/>
</mask>
<g mask="url(#mask7_433_1183)">
<path fill-rule="evenodd" clip-rule="evenodd" d="M238.535 252H262.535V228H238.535V252Z" fill="#E1E3EF"/>
</g>
<path fill-rule="evenodd" clip-rule="evenodd" d="M149.22 136.231C145.964 136.231 143.324 133.591 143.324 130.335C143.324 127.08 145.964 124.441 149.22 124.441C152.476 124.441 155.116 127.08 155.116 130.335C155.116 133.591 152.476 136.231 149.22 136.231ZM149.22 122C144.616 122 140.883 125.732 140.883 130.336C140.883 134.942 144.616 138.674 149.22 138.674C153.824 138.674 157.558 134.942 157.558 130.336C157.558 125.732 153.824 122 149.22 122Z" fill="#D8DBEA"/>
<path fill-rule="evenodd" clip-rule="evenodd" d="M171.816 208.5H126.627C122.127 208.5 118.477 204.852 118.477 200.351V158.795C118.477 142.57 131.753 129.295 147.977 129.295H150.465C166.691 129.295 179.965 142.57 179.965 158.795V200.351C179.965 204.852 176.317 208.5 171.816 208.5Z" fill="#D8DBEA"/>
<path fill-rule="evenodd" clip-rule="evenodd" d="M183.672 198.599H183.23C181.436 198.599 179.969 197.131 179.969 195.338V172.158C179.969 170.364 181.436 168.897 183.23 168.897H187.651C189.444 168.897 190.911 170.364 190.911 172.158V191.359C190.911 195.341 187.653 198.599 183.672 198.599Z" fill="#005B97"/>
<path fill-rule="evenodd" clip-rule="evenodd" d="M115.218 198.599H114.776C110.793 198.599 107.535 195.341 107.535 191.359V172.158C107.535 170.364 109.002 168.897 110.796 168.897H115.218C117.011 168.897 118.478 170.364 118.478 172.158V195.338C118.478 197.131 117.011 198.599 115.218 198.599Z" fill="#005B97"/>
<path fill-rule="evenodd" clip-rule="evenodd" d="M168.501 197.284L148.7 203.55L128.898 197.284V183.748H168.501V197.284Z" fill="#BEC0D6"/>
<path fill-rule="evenodd" clip-rule="evenodd" d="M136.91 200.886L135.981 201.812C135.209 202.581 133.959 202.581 133.186 201.812L132.258 200.886V192.229H136.91V200.886Z" fill="#005B97"/>
<path fill-rule="evenodd" clip-rule="evenodd" d="M135.526 199.362C135.526 199.882 135.105 200.302 134.586 200.302C134.066 200.302 133.645 199.882 133.645 199.362C133.645 198.842 134.066 198.422 134.586 198.422C135.105 198.422 135.526 198.842 135.526 199.362Z" fill="#F7FFF6"/>
<path fill-rule="evenodd" clip-rule="evenodd" d="M163.488 200.886L162.559 201.812C161.787 202.581 160.537 202.581 159.764 201.812L158.836 200.886V192.229H163.488V200.886Z" fill="#005B97"/>
<path fill-rule="evenodd" clip-rule="evenodd" d="M162.1 199.362C162.1 199.882 161.679 200.302 161.16 200.302C160.64 200.302 160.219 199.882 160.219 199.362C160.219 198.842 160.64 198.422 161.16 198.422C161.679 198.422 162.1 198.842 162.1 199.362Z" fill="#F7FFF6"/>
<path fill-rule="evenodd" clip-rule="evenodd" d="M177.014 160.319V164.727V173.878L124.816 148.878C128.286 140.008 136.957 133.693 147.014 133.693H151.433C164.543 133.693 177.014 147.198 177.014 160.319Z" fill="white"/>
<path fill-rule="evenodd" clip-rule="evenodd" d="M124.812 162.623V158.215V149.064L177.011 174.065C173.542 182.934 164.87 189.249 154.812 189.249H150.395C137.284 189.249 124.812 175.744 124.812 162.623Z" fill="#005B97"/>
<path d="M166.014 42C131.374 44.9324 118.642 74.2532 129.072 91.3445C136.432 103.403 148.903 119.701 172.149 115.791C195.395 111.881 197.354 90.3677 185.111 87.4413C172.869 84.516 129.254 98.1639 134.183 129.693C137.741 152.443 168.582 159 168.582 159" stroke="#D7DAE9" stroke-width="2" stroke-dasharray="7"/>
<path fill-rule="evenodd" clip-rule="evenodd" d="M186.036 24C186.036 24 191 11.0336 191.523 5.9895C191.798 3.35382 187.43 -3.98451 182.318 2.80345C177.207 9.5914 179.539 17.9143 186.036 24Z" fill="#D8DBEA"/>
<path fill-rule="evenodd" clip-rule="evenodd" d="M168.422 9.87867C162.608 7.9122 159.975 9.44542 158.854 12.5057C157.731 15.5671 159.298 21.3941 168.068 22.7224C176.84 24.0507 185.535 23.9997 185.535 23.9997C185.535 23.9997 174.237 11.8451 168.422 9.87867Z" fill="#D8DBEA"/>
<path fill-rule="evenodd" clip-rule="evenodd" d="M185.051 26.5692C185.183 26.0272 185.358 25.5077 185.552 25C184.479 25.1696 183.386 25.4077 182.287 25.7302C181.095 26.0791 179.981 26.5369 178.935 27.0612C178.48 27.9198 178.112 28.8372 177.873 29.8223C176.4 35.8864 179.878 41.9986 185.723 44C186.356 43.8745 186.992 43.7295 187.629 43.5433C189.409 43.0218 191.051 42.3318 192.535 41.532C186.827 39.0278 183.542 32.7784 185.051 26.5692Z" fill="#D8DBEA"/>
<path fill-rule="evenodd" clip-rule="evenodd" d="M176.707 29.7317C176.846 29.1326 177.036 28.5597 177.246 28C172.189 31.2394 169.357 36.267 169.824 39.1989C166.593 40.5876 164.535 41.7576 164.535 41.7576C164.535 41.7576 166.973 41.572 170.526 40.8892C172.428 43.6698 177.703 45.5315 183.535 44.8639C178.252 42.1317 175.27 35.914 176.707 29.7317Z" fill="#D8DBEA"/>
<path fill-rule="evenodd" clip-rule="evenodd" d="M193.452 31.9301C192.113 31.6086 191.282 30.2631 191.605 28.9155C191.926 27.5771 193.28 26.7478 194.619 27.0692C195.964 27.3927 196.786 28.7434 196.466 30.0828C196.142 31.4294 194.799 32.2526 193.452 31.9301ZM199.321 30.1298C198.243 26.3959 193.286 24.4677 187.439 25.128C187.195 25.7066 186.987 26.3169 186.838 26.9491C185.536 32.4913 188.544 38.0663 193.644 40C197.9 37.2924 200.29 33.4586 199.321 30.1298Z" fill="#D8DBEA"/>
<path d="M17.8711 323V304.821H20.0007L32.0248 319.754H30.9081V304.821H33.5051V323H31.3755L19.3514 308.067H20.4681V323H17.8711ZM44.478 323.156C43.0929 323.156 41.8637 322.853 40.7903 322.247C39.7168 321.641 38.8685 320.81 38.2452 319.754C37.6219 318.68 37.3103 317.468 37.3103 316.118C37.3103 314.75 37.6219 313.538 38.2452 312.482C38.8685 311.426 39.7168 310.604 40.7903 310.015C41.8637 309.409 43.0929 309.106 44.478 309.106C45.8457 309.106 47.0663 309.409 48.1398 310.015C49.2305 310.604 50.0789 311.426 50.6848 312.482C51.3081 313.521 51.6197 314.733 51.6197 316.118C51.6197 317.486 51.3081 318.698 50.6848 319.754C50.0789 320.81 49.2305 321.641 48.1398 322.247C47.0663 322.853 45.8457 323.156 44.478 323.156ZM44.478 320.974C45.361 320.974 46.1487 320.775 46.8413 320.377C47.5511 319.979 48.1051 319.416 48.5033 318.689C48.9016 317.945 49.1007 317.087 49.1007 316.118C49.1007 315.131 48.9016 314.283 48.5033 313.573C48.1051 312.846 47.5511 312.283 46.8413 311.885C46.1487 311.487 45.361 311.288 44.478 311.288C43.595 311.288 42.8073 311.487 42.1147 311.885C41.4222 312.283 40.8682 312.846 40.4526 313.573C40.0371 314.283 39.8294 315.131 39.8294 316.118C39.8294 317.087 40.0371 317.945 40.4526 318.689C40.8682 319.416 41.4222 319.979 42.1147 320.377C42.8073 320.775 43.595 320.974 44.478 320.974ZM64.7429 323.208C63.6695 323.208 62.6653 322.983 61.7304 322.533C60.7955 322.082 60.0337 321.433 59.445 320.585L60.9513 318.819C61.4534 319.511 62.0161 320.048 62.6393 320.429C63.2799 320.793 63.9811 320.974 64.7429 320.974C66.8205 320.974 67.8593 319.745 67.8593 317.287V307.08H61.2889V304.821H70.4303V317.157C70.4303 319.182 69.9456 320.697 68.976 321.702C68.0238 322.706 66.6128 323.208 64.7429 323.208ZM81.2519 323.156C79.8669 323.156 78.6376 322.853 77.5642 322.247C76.4908 321.641 75.6424 320.81 75.0191 319.754C74.3958 318.68 74.0842 317.468 74.0842 316.118C74.0842 314.75 74.3958 313.538 75.0191 312.482C75.6424 311.426 76.4908 310.604 77.5642 310.015C78.6376 309.409 79.8669 309.106 81.2519 309.106C82.6197 309.106 83.8403 309.409 84.9137 310.015C86.0044 310.604 86.8528 311.426 87.4588 312.482C88.082 313.521 88.3937 314.733 88.3937 316.118C88.3937 317.486 88.082 318.698 87.4588 319.754C86.8528 320.81 86.0044 321.641 84.9137 322.247C83.8403 322.853 82.6197 323.156 81.2519 323.156ZM81.2519 320.974C82.1349 320.974 82.9227 320.775 83.6152 320.377C84.325 319.979 84.8791 319.416 85.2773 318.689C85.6755 317.945 85.8746 317.087 85.8746 316.118C85.8746 315.131 85.6755 314.283 85.2773 313.573C84.8791 312.846 84.325 312.283 83.6152 311.885C82.9227 311.487 82.1349 311.288 81.2519 311.288C80.3689 311.288 79.5812 311.487 78.8887 311.885C78.1961 312.283 77.6421 312.846 77.2266 313.573C76.8111 314.283 76.6033 315.131 76.6033 316.118C76.6033 317.087 76.8111 317.945 77.2266 318.689C77.6421 319.416 78.1961 319.979 78.8887 320.377C79.5812 320.775 80.3689 320.974 81.2519 320.974ZM99.1392 323.156C97.9619 323.156 96.8971 322.896 95.9449 322.377C95.0099 321.84 94.2655 321.052 93.7114 320.013C93.1747 318.975 92.9064 317.676 92.9064 316.118C92.9064 314.56 93.1834 313.261 93.7374 312.222C94.3087 311.184 95.0619 310.405 95.9968 309.885C96.949 309.366 97.9965 309.106 99.1392 309.106C100.49 309.106 101.684 309.4 102.723 309.989C103.762 310.578 104.584 311.4 105.19 312.456C105.796 313.495 106.099 314.716 106.099 316.118C106.099 317.52 105.796 318.75 105.19 319.806C104.584 320.862 103.762 321.684 102.723 322.273C101.684 322.861 100.49 323.156 99.1392 323.156ZM91.8416 323V303.73H94.3347V312.898L94.075 316.092L94.2308 319.286V323H91.8416ZM98.9314 320.974C99.8144 320.974 100.602 320.775 101.295 320.377C102.005 319.979 102.559 319.416 102.957 318.689C103.372 317.945 103.58 317.087 103.58 316.118C103.58 315.131 103.372 314.283 102.957 313.573C102.559 312.846 102.005 312.283 101.295 311.885C100.602 311.487 99.8144 311.288 98.9314 311.288C98.0657 311.288 97.278 311.487 96.5681 311.885C95.8756 312.283 95.3216 312.846 94.9061 313.573C94.5078 314.283 94.3087 315.131 94.3087 316.118C94.3087 317.087 94.5078 317.945 94.9061 318.689C95.3216 319.416 95.8756 319.979 96.5681 320.377C97.278 320.775 98.0657 320.974 98.9314 320.974ZM113.491 323.156C112.349 323.156 111.258 323 110.219 322.688C109.198 322.377 108.392 321.996 107.804 321.546L108.843 319.572C109.431 319.97 110.158 320.308 111.024 320.585C111.89 320.862 112.773 321 113.673 321C114.833 321 115.664 320.836 116.166 320.507C116.686 320.178 116.945 319.719 116.945 319.13C116.945 318.698 116.789 318.36 116.478 318.118C116.166 317.875 115.751 317.693 115.231 317.572C114.729 317.451 114.166 317.347 113.543 317.261C112.92 317.157 112.297 317.036 111.673 316.897C111.05 316.741 110.479 316.533 109.959 316.274C109.44 315.997 109.024 315.625 108.713 315.157C108.401 314.672 108.245 314.032 108.245 313.235C108.245 312.404 108.479 311.677 108.946 311.054C109.414 310.431 110.072 309.954 110.92 309.625C111.786 309.279 112.807 309.106 113.985 309.106C114.885 309.106 115.794 309.219 116.712 309.444C117.646 309.651 118.408 309.954 118.997 310.353L117.932 312.326C117.309 311.911 116.66 311.625 115.984 311.469C115.309 311.313 114.634 311.236 113.959 311.236C112.868 311.236 112.054 311.417 111.518 311.781C110.981 312.127 110.712 312.577 110.712 313.131C110.712 313.599 110.868 313.962 111.18 314.222C111.509 314.465 111.924 314.655 112.426 314.793C112.946 314.932 113.517 315.053 114.14 315.157C114.764 315.244 115.387 315.365 116.01 315.521C116.634 315.659 117.196 315.858 117.698 316.118C118.218 316.378 118.633 316.741 118.945 317.209C119.274 317.676 119.438 318.299 119.438 319.079C119.438 319.91 119.196 320.628 118.711 321.234C118.226 321.84 117.543 322.316 116.66 322.662C115.777 322.991 114.72 323.156 113.491 323.156ZM127.139 323L135.372 304.821H137.943L146.201 323H143.474L136.125 306.275H137.164L129.814 323H127.139ZM130.645 318.455L131.346 316.378H141.579L142.332 318.455H130.645ZM151.449 323L145.424 309.236H148.021L153.371 321.702H152.124L157.578 309.236H160.019L153.994 323H151.449ZM170.459 323V320.091L170.329 319.546V314.586C170.329 313.53 170.018 312.716 169.394 312.145C168.788 311.556 167.871 311.262 166.641 311.262C165.828 311.262 165.031 311.4 164.252 311.677C163.473 311.937 162.815 312.292 162.279 312.742L161.24 310.872C161.95 310.301 162.798 309.868 163.785 309.574C164.789 309.262 165.836 309.106 166.927 309.106C168.814 309.106 170.269 309.565 171.29 310.482C172.312 311.4 172.822 312.802 172.822 314.69V323H170.459ZM165.94 323.156C164.919 323.156 164.019 322.983 163.239 322.636C162.478 322.29 161.889 321.814 161.473 321.208C161.058 320.585 160.85 319.884 160.85 319.104C160.85 318.36 161.023 317.685 161.37 317.079C161.733 316.473 162.313 315.988 163.11 315.625C163.923 315.261 165.014 315.079 166.382 315.079H170.745V316.871H166.486C165.239 316.871 164.399 317.079 163.967 317.494C163.534 317.91 163.317 318.412 163.317 319.001C163.317 319.676 163.586 320.221 164.122 320.637C164.659 321.035 165.404 321.234 166.356 321.234C167.291 321.234 168.104 321.026 168.797 320.611C169.507 320.195 170.018 319.589 170.329 318.793L170.823 320.507C170.494 321.321 169.914 321.97 169.083 322.455C168.252 322.922 167.204 323.156 165.94 323.156ZM177.436 323V309.236H179.929V323H177.436ZM178.683 306.587C178.198 306.587 177.791 306.431 177.462 306.119C177.15 305.808 176.995 305.427 176.995 304.977C176.995 304.509 177.15 304.12 177.462 303.808C177.791 303.497 178.198 303.341 178.683 303.341C179.167 303.341 179.566 303.497 179.877 303.808C180.206 304.102 180.371 304.475 180.371 304.925C180.371 305.392 180.215 305.791 179.903 306.119C179.592 306.431 179.185 306.587 178.683 306.587ZM184.689 323V303.73H187.183V323H184.689ZM200.487 323V320.091L200.357 319.546V314.586C200.357 313.53 200.045 312.716 199.422 312.145C198.816 311.556 197.899 311.262 196.669 311.262C195.856 311.262 195.059 311.4 194.28 311.677C193.501 311.937 192.843 312.292 192.306 312.742L191.268 310.872C191.977 310.301 192.826 309.868 193.813 309.574C194.817 309.262 195.864 309.106 196.955 309.106C198.842 309.106 200.296 309.565 201.318 310.482C202.339 311.4 202.85 312.802 202.85 314.69V323H200.487ZM195.968 323.156C194.947 323.156 194.046 322.983 193.267 322.636C192.505 322.29 191.917 321.814 191.501 321.208C191.086 320.585 190.878 319.884 190.878 319.104C190.878 318.36 191.051 317.685 191.397 317.079C191.761 316.473 192.341 315.988 193.137 315.625C193.951 315.261 195.042 315.079 196.41 315.079H200.773V316.871H196.513C195.267 316.871 194.427 317.079 193.994 317.494C193.562 317.91 193.345 318.412 193.345 319.001C193.345 319.676 193.613 320.221 194.15 320.637C194.687 321.035 195.431 321.234 196.384 321.234C197.319 321.234 198.132 321.026 198.825 320.611C199.535 320.195 200.045 319.589 200.357 318.793L200.85 320.507C200.522 321.321 199.942 321.97 199.11 322.455C198.279 322.922 197.232 323.156 195.968 323.156ZM214.761 323.156C213.584 323.156 212.519 322.896 211.567 322.377C210.632 321.84 209.888 321.052 209.334 320.013C208.797 318.975 208.529 317.676 208.529 316.118C208.529 314.56 208.806 313.261 209.36 312.222C209.931 311.184 210.684 310.405 211.619 309.885C212.571 309.366 213.619 309.106 214.761 309.106C216.112 309.106 217.307 309.4 218.345 309.989C219.384 310.578 220.207 311.4 220.812 312.456C221.418 313.495 221.721 314.716 221.721 316.118C221.721 317.52 221.418 318.75 220.812 319.806C220.207 320.862 219.384 321.684 218.345 322.273C217.307 322.861 216.112 323.156 214.761 323.156ZM207.464 323V303.73H209.957V312.898L209.697 316.092L209.853 319.286V323H207.464ZM214.554 320.974C215.437 320.974 216.224 320.775 216.917 320.377C217.627 319.979 218.181 319.416 218.579 318.689C218.995 317.945 219.202 317.087 219.202 316.118C219.202 315.131 218.995 314.283 218.579 313.573C218.181 312.846 217.627 312.283 216.917 311.885C216.224 311.487 215.437 311.288 214.554 311.288C213.688 311.288 212.9 311.487 212.19 311.885C211.498 312.283 210.944 312.846 210.528 313.573C210.13 314.283 209.931 315.131 209.931 316.118C209.931 317.087 210.13 317.945 210.528 318.689C210.944 319.416 211.498 319.979 212.19 320.377C212.9 320.775 213.688 320.974 214.554 320.974ZM225.166 323V303.73H227.659V323H225.166ZM238.548 323.156C237.077 323.156 235.778 322.853 234.653 322.247C233.545 321.641 232.679 320.81 232.056 319.754C231.45 318.698 231.147 317.486 231.147 316.118C231.147 314.75 231.441 313.538 232.03 312.482C232.636 311.426 233.458 310.604 234.497 310.015C235.553 309.409 236.739 309.106 238.055 309.106C239.388 309.106 240.565 309.4 241.587 309.989C242.608 310.578 243.405 311.409 243.976 312.482C244.565 313.538 244.859 314.776 244.859 316.196C244.859 316.3 244.85 316.421 244.833 316.559C244.833 316.698 244.824 316.828 244.807 316.949H233.095V315.157H243.509L242.496 315.78C242.513 314.897 242.331 314.11 241.95 313.417C241.57 312.725 241.041 312.188 240.366 311.807C239.708 311.409 238.938 311.21 238.055 311.21C237.189 311.21 236.419 311.409 235.744 311.807C235.068 312.188 234.54 312.733 234.159 313.443C233.779 314.136 233.588 314.932 233.588 315.832V316.248C233.588 317.165 233.796 317.988 234.211 318.715C234.644 319.425 235.242 319.979 236.003 320.377C236.765 320.775 237.639 320.974 238.626 320.974C239.44 320.974 240.176 320.836 240.834 320.559C241.509 320.282 242.098 319.866 242.6 319.312L243.976 320.922C243.353 321.65 242.574 322.204 241.639 322.584C240.721 322.965 239.691 323.156 238.548 323.156ZM248.451 317.261L247.983 304.821H250.918L250.425 317.261H248.451ZM249.464 323.156C248.979 323.156 248.572 322.991 248.243 322.662C247.914 322.333 247.75 321.944 247.75 321.494C247.75 321.009 247.914 320.611 248.243 320.299C248.572 319.987 248.979 319.832 249.464 319.832C249.948 319.832 250.347 319.987 250.658 320.299C250.97 320.611 251.126 321.009 251.126 321.494C251.126 321.944 250.97 322.333 250.658 322.662C250.347 322.991 249.948 323.156 249.464 323.156ZM255.4 317.261L254.932 304.821H257.867L257.374 317.261H255.4ZM256.413 323.156C255.928 323.156 255.521 322.991 255.192 322.662C254.863 322.333 254.699 321.944 254.699 321.494C254.699 321.009 254.863 320.611 255.192 320.299C255.521 319.987 255.928 319.832 256.413 319.832C256.897 319.832 257.296 319.987 257.607 320.299C257.919 320.611 258.075 321.009 258.075 321.494C258.075 321.944 257.919 322.333 257.607 322.662C257.296 322.991 256.897 323.156 256.413 323.156Z" fill="#7B849A"/>
</svg>
