<svg width="275" height="297" viewBox="0 0 275 297" fill="none" xmlns="http://www.w3.org/2000/svg">
<rect x="31.3906" y="-0.00292969" width="188.789" height="235.012" rx="24.2548" fill="#F3F4F6"/>
<rect x="48.0664" y="30.3154" width="75.7962" height="14.8561" rx="7.42803" fill="#005B97"/>
<rect x="48.0664" y="72.458" width="151.592" height="14.8561" rx="7.42803" fill="#005B97" fill-opacity="0.37"/>
<rect x="48.0664" y="114.601" width="151.592" height="14.8561" rx="7.42803" fill="#005B97" fill-opacity="0.37"/>
<rect x="48.0664" y="156.743" width="151.592" height="14.8561" rx="7.42803" fill="#005B97" fill-opacity="0.37"/>
<rect x="48.0664" y="198.886" width="151.592" height="14.8561" rx="7.42803" fill="#005B97" fill-opacity="0.37"/>
<path fill-rule="evenodd" clip-rule="evenodd" d="M143.542 200.045C156.345 200.045 168.244 196.172 178.131 189.534L218.587 228.153L233.26 211.13L194.221 173.864C201.43 163.717 205.669 151.313 205.669 137.918C205.669 103.606 177.854 75.79 143.542 75.79C109.23 75.79 81.4141 103.606 81.4141 137.918C81.4141 172.23 109.23 200.045 143.542 200.045ZM196.532 137.919C196.532 166.968 172.983 190.517 143.934 190.517C114.885 190.517 91.3361 166.968 91.3361 137.919C91.3361 108.869 114.885 85.3205 143.934 85.3205C172.983 85.3205 196.532 108.869 196.532 137.919Z" fill="#005B97"/>
<g filter="url(#filter0_b_352_32333)">
<path d="M143.933 191.537C173.853 191.537 198.108 167.505 198.108 137.859C198.108 108.213 173.853 84.1807 143.933 84.1807C114.013 84.1807 89.7578 108.213 89.7578 137.859C89.7578 167.505 114.013 191.537 143.933 191.537Z" fill="#38B89A" fill-opacity="0.05"/>
</g>
<path d="M153.301 137.859L166.412 124.799C167.64 123.507 168.313 121.79 168.287 120.013C168.262 118.236 167.54 116.538 166.276 115.281C165.011 114.024 163.303 113.307 161.515 113.282C159.727 113.257 158 113.926 156.7 115.146L143.56 128.206L130.45 115.146C129.819 114.483 129.06 113.952 128.219 113.585C127.378 113.217 126.472 113.021 125.553 113.008C124.635 112.996 123.723 113.166 122.872 113.509C122.021 113.853 121.248 114.362 120.598 115.008C119.949 115.653 119.436 116.422 119.09 117.268C118.745 118.114 118.574 119.02 118.587 119.933C118.6 120.846 118.797 121.747 119.166 122.583C119.536 123.418 120.07 124.172 120.738 124.799L133.87 137.859L120.738 150.919C120.07 151.546 119.536 152.299 119.166 153.135C118.797 153.971 118.6 154.872 118.587 155.785C118.574 156.698 118.745 157.604 119.09 158.45C119.436 159.296 119.949 160.064 120.598 160.71C121.248 161.356 122.021 161.865 122.872 162.209C123.723 162.552 124.635 162.722 125.553 162.709C126.472 162.696 127.378 162.5 128.219 162.133C129.06 161.766 129.819 161.235 130.45 160.571L143.589 147.512L156.729 160.571C158.041 161.72 159.745 162.328 161.492 162.272C163.24 162.216 164.9 161.499 166.135 160.268C167.37 159.037 168.086 157.385 168.137 155.648C168.188 153.911 167.571 152.219 166.412 150.919L153.301 137.859Z" fill="#005B97"/>
<path d="M218.578 228.16L233.25 211.137L235.46 213.247C237.605 215.293 238.888 218.153 239.029 221.196C239.17 224.239 238.157 227.216 236.212 229.473C234.267 231.729 231.55 233.08 228.658 233.228C225.767 233.377 222.938 232.31 220.794 230.263L218.584 228.154L218.578 228.16Z" fill="#005B97"/>
<path d="M10.5344 291V274.221H12.4999L23.598 288.004H22.5673V274.221H24.9643V291H22.9988L11.9007 277.217H12.9314V291H10.5344ZM35.0922 291.144C33.8138 291.144 32.6792 290.864 31.6885 290.305C30.6977 289.746 29.9147 288.979 29.3394 288.004C28.7641 287.013 28.4765 285.894 28.4765 284.648C28.4765 283.386 28.7641 282.267 29.3394 281.292C29.9147 280.317 30.6977 279.558 31.6885 279.015C32.6792 278.456 33.8138 278.176 35.0922 278.176C36.3546 278.176 37.4812 278.456 38.472 279.015C39.4787 279.558 40.2617 280.317 40.821 281.292C41.3963 282.251 41.684 283.37 41.684 284.648C41.684 285.91 41.3963 287.029 40.821 288.004C40.2617 288.979 39.4787 289.746 38.472 290.305C37.4812 290.864 36.3546 291.144 35.0922 291.144ZM35.0922 289.13C35.9072 289.13 36.6343 288.947 37.2735 288.579C37.9287 288.211 38.44 287.692 38.8076 287.021C39.1751 286.334 39.3589 285.543 39.3589 284.648C39.3589 283.737 39.1751 282.954 38.8076 282.299C38.44 281.628 37.9287 281.108 37.2735 280.741C36.6343 280.373 35.9072 280.19 35.0922 280.19C34.2772 280.19 33.5501 280.373 32.9109 280.741C32.2717 281.108 31.7604 281.628 31.3769 282.299C30.9933 282.954 30.8016 283.737 30.8016 284.648C30.8016 285.543 30.9933 286.334 31.3769 287.021C31.7604 287.692 32.2717 288.211 32.9109 288.579C33.5501 288.947 34.2772 289.13 35.0922 289.13ZM51.6392 291V274.221H58.183C59.6532 274.221 60.9076 274.453 61.9463 274.916C62.985 275.38 63.784 276.051 64.3433 276.93C64.9026 277.809 65.1822 278.855 65.1822 280.07C65.1822 281.284 64.9026 282.331 64.3433 283.21C63.784 284.073 62.985 284.736 61.9463 285.199C60.9076 285.663 59.6532 285.894 58.183 285.894H52.9575L54.0362 284.792V291H51.6392ZM62.8571 291L58.5905 284.912H61.1553L65.4699 291H62.8571ZM54.0362 285.031L52.9575 283.857H58.1111C59.6452 283.857 60.8037 283.529 61.5867 282.874C62.3857 282.203 62.7852 281.268 62.7852 280.07C62.7852 278.871 62.3857 277.944 61.5867 277.289C60.8037 276.634 59.6452 276.306 58.1111 276.306H52.9575L54.0362 275.108V285.031ZM74.3762 291.144C73.0179 291.144 71.8194 290.864 70.7807 290.305C69.758 289.746 68.959 288.979 68.3837 288.004C67.8244 287.029 67.5448 285.91 67.5448 284.648C67.5448 283.386 67.8164 282.267 68.3598 281.292C68.9191 280.317 69.6781 279.558 70.6369 279.015C71.6117 278.456 72.7063 278.176 73.9208 278.176C75.1513 278.176 76.2379 278.448 77.1807 278.991C78.1235 279.534 78.8586 280.301 79.386 281.292C79.9293 282.267 80.2009 283.409 80.2009 284.72C80.2009 284.816 80.193 284.928 80.177 285.055C80.177 285.183 80.169 285.303 80.153 285.415H69.3425V283.761H78.9545L78.0197 284.336C78.0357 283.521 77.8679 282.794 77.5163 282.155C77.1647 281.516 76.6774 281.02 76.0541 280.669C75.4469 280.301 74.7358 280.118 73.9208 280.118C73.1218 280.118 72.4107 280.301 71.7875 280.669C71.1643 281.02 70.6769 281.524 70.3253 282.179C69.9737 282.818 69.798 283.553 69.798 284.384V284.768C69.798 285.615 69.9897 286.374 70.3732 287.045C70.7727 287.7 71.3241 288.211 72.0272 288.579C72.7303 288.947 73.5373 289.13 74.4481 289.13C75.1992 289.13 75.8784 289.002 76.4856 288.747C77.1088 288.491 77.6521 288.108 78.1156 287.596L79.386 289.082C78.8107 289.754 78.0916 290.265 77.2287 290.616C76.3817 290.968 75.4309 291.144 74.3762 291.144ZM88.6457 291.144C87.4152 291.144 86.3126 290.872 85.3378 290.329C84.379 289.786 83.62 289.026 83.0607 288.052C82.5014 287.077 82.2217 285.942 82.2217 284.648C82.2217 283.354 82.5014 282.227 83.0607 281.268C83.62 280.293 84.379 279.534 85.3378 278.991C86.3126 278.448 87.4152 278.176 88.6457 278.176C89.7483 278.176 90.7311 278.416 91.594 278.895C92.4569 279.375 93.1361 280.094 93.6314 281.052C94.1428 282.011 94.3985 283.21 94.3985 284.648C94.3985 286.086 94.1348 287.285 93.6075 288.243C93.0961 289.202 92.409 289.929 91.5461 290.425C90.6831 290.904 89.7163 291.144 88.6457 291.144ZM88.8374 289.13C89.6364 289.13 90.3555 288.947 90.9947 288.579C91.6499 288.211 92.1613 287.692 92.5288 287.021C92.9123 286.334 93.1041 285.543 93.1041 284.648C93.1041 283.737 92.9123 282.954 92.5288 282.299C92.1613 281.628 91.6499 281.108 90.9947 280.741C90.3555 280.373 89.6364 280.19 88.8374 280.19C88.0225 280.19 87.2954 280.373 86.6562 280.741C86.017 281.108 85.5056 281.628 85.1221 282.299C84.7386 282.954 84.5468 283.737 84.5468 284.648C84.5468 285.543 84.7386 286.334 85.1221 287.021C85.5056 287.692 86.017 288.211 86.6562 288.579C87.2954 288.947 88.0225 289.13 88.8374 289.13ZM93.0801 295.65V287.62L93.3198 284.672L93.176 281.724V278.296H95.3813V295.65H93.0801ZM105.08 291.144C103.994 291.144 103.035 290.944 102.204 290.545C101.389 290.145 100.75 289.538 100.286 288.723C99.839 287.892 99.6153 286.853 99.6153 285.607V278.296H101.916V285.343C101.916 286.59 102.212 287.524 102.803 288.148C103.411 288.771 104.258 289.082 105.344 289.082C106.143 289.082 106.838 288.923 107.43 288.603C108.021 288.267 108.476 287.788 108.796 287.165C109.115 286.526 109.275 285.759 109.275 284.864V278.296H111.576V291H109.395V287.572L109.755 288.483C109.339 289.33 108.716 289.985 107.885 290.449C107.054 290.912 106.119 291.144 105.08 291.144ZM121.614 291.144C120.256 291.144 119.057 290.864 118.018 290.305C116.996 289.746 116.197 288.979 115.621 288.004C115.062 287.029 114.783 285.91 114.783 284.648C114.783 283.386 115.054 282.267 115.598 281.292C116.157 280.317 116.916 279.558 117.875 279.015C118.849 278.456 119.944 278.176 121.159 278.176C122.389 278.176 123.476 278.448 124.418 278.991C125.361 279.534 126.096 280.301 126.624 281.292C127.167 282.267 127.439 283.409 127.439 284.72C127.439 284.816 127.431 284.928 127.415 285.055C127.415 285.183 127.407 285.303 127.391 285.415H116.58V283.761H126.192L125.257 284.336C125.273 283.521 125.106 282.794 124.754 282.155C124.402 281.516 123.915 281.02 123.292 280.669C122.685 280.301 121.974 280.118 121.159 280.118C120.36 280.118 119.648 280.301 119.025 280.669C118.402 281.02 117.915 281.524 117.563 282.179C117.211 282.818 117.036 283.553 117.036 284.384V284.768C117.036 285.615 117.227 286.374 117.611 287.045C118.01 287.7 118.562 288.211 119.265 288.579C119.968 288.947 120.775 289.13 121.686 289.13C122.437 289.13 123.116 289.002 123.723 288.747C124.347 288.491 124.89 288.108 125.353 287.596L126.624 289.082C126.048 289.754 125.329 290.265 124.466 290.616C123.619 290.968 122.669 291.144 121.614 291.144ZM134.277 291.144C133.223 291.144 132.216 291 131.257 290.712C130.314 290.425 129.571 290.073 129.028 289.658L129.987 287.836C130.53 288.204 131.201 288.515 132 288.771C132.799 289.026 133.614 289.154 134.445 289.154C135.516 289.154 136.283 289.002 136.746 288.699C137.226 288.395 137.465 287.972 137.465 287.428C137.465 287.029 137.322 286.717 137.034 286.494C136.746 286.27 136.363 286.102 135.883 285.99C135.42 285.878 134.901 285.783 134.325 285.703C133.75 285.607 133.175 285.495 132.6 285.367C132.024 285.223 131.497 285.031 131.018 284.792C130.538 284.536 130.155 284.193 129.867 283.761C129.579 283.314 129.435 282.722 129.435 281.987C129.435 281.22 129.651 280.549 130.083 279.974C130.514 279.399 131.121 278.959 131.904 278.655C132.703 278.336 133.646 278.176 134.733 278.176C135.564 278.176 136.403 278.28 137.25 278.488C138.113 278.679 138.816 278.959 139.359 279.327L138.376 281.148C137.801 280.765 137.202 280.501 136.579 280.357C135.955 280.213 135.332 280.142 134.709 280.142C133.702 280.142 132.951 280.309 132.456 280.645C131.96 280.965 131.713 281.38 131.713 281.891C131.713 282.323 131.856 282.658 132.144 282.898C132.448 283.122 132.831 283.298 133.295 283.425C133.774 283.553 134.301 283.665 134.877 283.761C135.452 283.841 136.027 283.953 136.603 284.097C137.178 284.224 137.697 284.408 138.161 284.648C138.64 284.888 139.023 285.223 139.311 285.655C139.615 286.086 139.767 286.661 139.767 287.381C139.767 288.148 139.543 288.811 139.095 289.37C138.648 289.929 138.017 290.369 137.202 290.688C136.387 290.992 135.412 291.144 134.277 291.144ZM147.005 291.144C145.727 291.144 144.736 290.8 144.033 290.113C143.33 289.426 142.978 288.443 142.978 287.165V275.515H145.279V287.069C145.279 287.756 145.447 288.283 145.782 288.651C146.134 289.018 146.629 289.202 147.269 289.202C147.988 289.202 148.587 289.002 149.066 288.603L149.785 290.257C149.434 290.561 149.01 290.784 148.515 290.928C148.036 291.072 147.532 291.144 147.005 291.144ZM140.821 280.19V278.296H148.923V280.19H140.821ZM156.211 291.144C155.156 291.144 154.15 291 153.191 290.712C152.248 290.425 151.505 290.073 150.961 289.658L151.92 287.836C152.464 288.204 153.135 288.515 153.934 288.771C154.733 289.026 155.548 289.154 156.379 289.154C157.449 289.154 158.216 289.002 158.68 288.699C159.159 288.395 159.399 287.972 159.399 287.428C159.399 287.029 159.255 286.717 158.967 286.494C158.68 286.27 158.296 286.102 157.817 285.99C157.353 285.878 156.834 285.783 156.259 285.703C155.684 285.607 155.108 285.495 154.533 285.367C153.958 285.223 153.43 285.031 152.951 284.792C152.472 284.536 152.088 284.193 151.8 283.761C151.513 283.314 151.369 282.722 151.369 281.987C151.369 281.22 151.585 280.549 152.016 279.974C152.448 279.399 153.055 278.959 153.838 278.655C154.637 278.336 155.58 278.176 156.666 278.176C157.497 278.176 158.336 278.28 159.183 278.488C160.046 278.679 160.749 278.959 161.293 279.327L160.31 281.148C159.735 280.765 159.135 280.501 158.512 280.357C157.889 280.213 157.266 280.142 156.642 280.142C155.636 280.142 154.885 280.309 154.389 280.645C153.894 280.965 153.646 281.38 153.646 281.891C153.646 282.323 153.79 282.658 154.078 282.898C154.381 283.122 154.765 283.298 155.228 283.425C155.708 283.553 156.235 283.665 156.81 283.761C157.385 283.841 157.961 283.953 158.536 284.097C159.111 284.224 159.631 284.408 160.094 284.648C160.573 284.888 160.957 285.223 161.245 285.655C161.548 286.086 161.7 286.661 161.7 287.381C161.7 288.148 161.476 288.811 161.029 289.37C160.581 289.929 159.95 290.369 159.135 290.688C158.32 290.992 157.346 291.144 156.211 291.144ZM173.506 282.155H182.159V284.216H173.506V282.155ZM173.746 291H171.349V274.221H183.19V276.306H173.746V291ZM191.272 291.144C189.993 291.144 188.859 290.864 187.868 290.305C186.877 289.746 186.094 288.979 185.519 288.004C184.944 287.013 184.656 285.894 184.656 284.648C184.656 283.386 184.944 282.267 185.519 281.292C186.094 280.317 186.877 279.558 187.868 279.015C188.859 278.456 189.993 278.176 191.272 278.176C192.534 278.176 193.661 278.456 194.652 279.015C195.658 279.558 196.441 280.317 197.001 281.292C197.576 282.251 197.863 283.37 197.863 284.648C197.863 285.91 197.576 287.029 197.001 288.004C196.441 288.979 195.658 289.746 194.652 290.305C193.661 290.864 192.534 291.144 191.272 291.144ZM191.272 289.13C192.087 289.13 192.814 288.947 193.453 288.579C194.108 288.211 194.62 287.692 194.987 287.021C195.355 286.334 195.538 285.543 195.538 284.648C195.538 283.737 195.355 282.954 194.987 282.299C194.62 281.628 194.108 281.108 193.453 280.741C192.814 280.373 192.087 280.19 191.272 280.19C190.457 280.19 189.73 280.373 189.09 280.741C188.451 281.108 187.94 281.628 187.556 282.299C187.173 282.954 186.981 283.737 186.981 284.648C186.981 285.543 187.173 286.334 187.556 287.021C187.94 287.692 188.451 288.211 189.09 288.579C189.73 288.947 190.457 289.13 191.272 289.13ZM206.391 291.144C205.305 291.144 204.346 290.944 203.515 290.545C202.7 290.145 202.061 289.538 201.597 288.723C201.15 287.892 200.926 286.853 200.926 285.607V278.296H203.227V285.343C203.227 286.59 203.523 287.524 204.114 288.148C204.721 288.771 205.568 289.082 206.655 289.082C207.454 289.082 208.149 288.923 208.74 288.603C209.332 288.267 209.787 287.788 210.107 287.165C210.426 286.526 210.586 285.759 210.586 284.864V278.296H212.887V291H210.706V287.572L211.065 288.483C210.65 289.33 210.027 289.985 209.196 290.449C208.365 290.912 207.43 291.144 206.391 291.144ZM224.051 278.176C225.09 278.176 226.001 278.376 226.784 278.775C227.583 279.175 228.206 279.782 228.654 280.597C229.101 281.412 229.325 282.443 229.325 283.689V291H227.024V283.953C227.024 282.722 226.72 281.796 226.113 281.172C225.521 280.549 224.682 280.237 223.596 280.237C222.781 280.237 222.07 280.397 221.463 280.717C220.855 281.036 220.384 281.508 220.048 282.131C219.729 282.754 219.569 283.529 219.569 284.456V291H217.268V278.296H219.473V281.724L219.113 280.813C219.529 279.982 220.168 279.335 221.031 278.871C221.894 278.408 222.901 278.176 224.051 278.176ZM238.833 291.144C237.602 291.144 236.5 290.872 235.525 290.329C234.566 289.786 233.807 289.026 233.248 288.052C232.688 287.077 232.409 285.942 232.409 284.648C232.409 283.354 232.688 282.227 233.248 281.268C233.807 280.293 234.566 279.534 235.525 278.991C236.5 278.448 237.602 278.176 238.833 278.176C239.903 278.176 240.87 278.416 241.733 278.895C242.596 279.375 243.283 280.094 243.794 281.052C244.322 282.011 244.586 283.21 244.586 284.648C244.586 286.086 244.33 287.285 243.818 288.243C243.323 289.202 242.644 289.929 241.781 290.425C240.918 290.904 239.935 291.144 238.833 291.144ZM239.024 289.13C239.823 289.13 240.543 288.947 241.182 288.579C241.837 288.211 242.348 287.692 242.716 287.021C243.099 286.334 243.291 285.543 243.291 284.648C243.291 283.737 243.099 282.954 242.716 282.299C242.348 281.628 241.837 281.108 241.182 280.741C240.543 280.373 239.823 280.19 239.024 280.19C238.209 280.19 237.482 280.373 236.843 280.741C236.204 281.108 235.693 281.628 235.309 282.299C234.926 282.954 234.734 283.737 234.734 284.648C234.734 285.543 234.926 286.334 235.309 287.021C235.693 287.692 236.204 288.211 236.843 288.579C237.482 288.947 238.209 289.13 239.024 289.13ZM243.363 291V287.572L243.507 284.624L243.267 281.676V273.214H245.568V291H243.363ZM250.042 285.703L249.611 274.221H252.319L251.864 285.703H250.042ZM250.977 291.144C250.529 291.144 250.154 290.992 249.85 290.688C249.547 290.385 249.395 290.025 249.395 289.61C249.395 289.162 249.547 288.795 249.85 288.507C250.154 288.219 250.529 288.076 250.977 288.076C251.424 288.076 251.792 288.219 252.08 288.507C252.367 288.795 252.511 289.162 252.511 289.61C252.511 290.025 252.367 290.385 252.08 290.688C251.792 290.992 251.424 291.144 250.977 291.144ZM256.456 285.703L256.024 274.221H258.733L258.278 285.703H256.456ZM257.391 291.144C256.943 291.144 256.568 290.992 256.264 290.688C255.961 290.385 255.809 290.025 255.809 289.61C255.809 289.162 255.961 288.795 256.264 288.507C256.568 288.219 256.943 288.076 257.391 288.076C257.838 288.076 258.206 288.219 258.493 288.507C258.781 288.795 258.925 289.162 258.925 289.61C258.925 290.025 258.781 290.385 258.493 290.688C258.206 290.992 257.838 291.144 257.391 291.144ZM262.87 285.703L262.438 274.221H265.147L264.691 285.703H262.87ZM263.805 291.144C263.357 291.144 262.982 290.992 262.678 290.688C262.374 290.385 262.223 290.025 262.223 289.61C262.223 289.162 262.374 288.795 262.678 288.507C262.982 288.219 263.357 288.076 263.805 288.076C264.252 288.076 264.62 288.219 264.907 288.507C265.195 288.795 265.339 289.162 265.339 289.61C265.339 290.025 265.195 290.385 264.907 290.688C264.62 290.992 264.252 291.144 263.805 291.144Z" fill="#7B849A"/>
<defs>
<filter id="filter0_b_352_32333" x="81.8055" y="76.2283" width="124.256" height="123.261" filterUnits="userSpaceOnUse" color-interpolation-filters="sRGB">
<feFlood flood-opacity="0" result="BackgroundImageFix"/>
<feGaussianBlur in="BackgroundImageFix" stdDeviation="3.97617"/>
<feComposite in2="SourceAlpha" operator="in" result="effect1_backgroundBlur_352_32333"/>
<feBlend mode="normal" in="SourceGraphic" in2="effect1_backgroundBlur_352_32333" result="shape"/>
</filter>
</defs>
</svg>
