<svg width="339" height="256" viewBox="0 0 339 256" fill="none" xmlns="http://www.w3.org/2000/svg">
<path d="M10.6408 250.729C-12.8663 246.812 58.9585 239.412 94.2173 238.976C220.955 236.16 272.821 238.405 302.882 247.418C305.458 248.191 305.083 251.558 302.407 251.824C223.194 259.679 76.5645 254.484 10.6408 250.729Z" fill="#005B97" fill-opacity="0.1"/>
<path d="M186.938 171.07L284.879 117.529L334.502 137.118L186.938 171.07Z" fill="#005B97" stroke="#005B97" stroke-width="2.61176"/>
<path d="M266.594 125.365L262.677 111L193.465 165.847L266.594 125.365Z" fill="#097DCA"/>
<path d="M227.42 101.859L261.373 112.306L186.938 171.071L227.42 101.859Z" fill="#005B97" stroke="#005B97" stroke-width="2.61176"/>
<path d="M1.5 155.4C14.1235 139.294 46.9447 110.478 77.2412 124.059C82.8129 126.202 91.8449 133.24 84.1442 144.425C83.9069 144.77 83.578 145.053 83.1973 145.227C77.7865 147.695 67.0594 149.486 62.9618 138.654C62.9053 138.504 62.8639 138.35 62.8387 138.192C60.3323 122.436 67.291 90.3466 115.112 86.1882" stroke="#005B97" stroke-width="2.61176"/>
<path d="M214.359 61.3766C243.524 57.0237 297.675 61.3766 280.959 113.612" stroke="#005B97" stroke-width="2.61176"/>
<rect x="95.5273" width="125.365" height="23.5059" rx="5.22353" fill="#005B97"/>
<rect x="95.5273" y="224.612" width="125.365" height="23.5059" rx="5.22353" fill="#005B97"/>
<path d="M111.195 70.7838V47.0119C111.195 44.127 113.534 41.7883 116.419 41.7883H199.995C202.88 41.7883 205.219 44.127 205.219 47.0119V70.7838C205.219 72.2758 204.581 73.6967 203.466 74.6879L161.677 111.833C159.698 113.592 156.716 113.592 154.737 111.833L112.949 74.6879C111.833 73.6967 111.195 72.2758 111.195 70.7838Z" fill="#005B97"/>
<path d="M156.312 205.832L139.899 224.176C138.394 225.859 139.588 228.53 141.845 228.53H175.638C177.931 228.53 179.111 225.786 177.534 224.122L160.155 205.777C159.104 204.668 157.331 204.694 156.312 205.832Z" fill="#005B97" fill-opacity="0.57"/>
<path d="M103.266 71.0412L101.015 25.1274C100.869 22.1457 103.247 19.648 106.232 19.648L207.828 19.6481C210.713 19.6481 213.052 21.9867 213.052 24.8716V70.8933C213.052 72.1897 212.57 73.4397 211.7 74.4004L169.35 121.148C167.492 123.199 167.556 126.343 169.495 128.317L212.912 172.493C213.841 173.438 214.376 174.701 214.408 176.026L215.533 221.872C215.604 224.806 213.246 227.224 210.311 227.224H108.581C105.697 227.224 103.358 224.885 103.358 222V176.06C103.358 174.715 103.877 173.422 104.806 172.45L147.009 128.315C148.903 126.335 148.945 123.229 147.105 121.198L104.612 74.2924C103.801 73.397 103.326 72.248 103.266 71.0412Z" stroke="#005B97" stroke-width="2.61176"/>
</svg>
