<svg width="201" height="53" viewBox="0 0 201 53" fill="none" xmlns="http://www.w3.org/2000/svg">
<path d="M4.42895 46V6.52216H15.0366L22.6369 34.0801H22.7462L30.4012 6.52216H41.1182V46H34.5568V14.9426H34.4474L25.5895 46H19.8483L11.0997 14.9426H10.9904V46H4.42895ZM56.2646 23.9099H62.2792C63.7008 23.9099 64.8673 23.7823 65.7786 23.5272C66.7264 23.272 67.4736 22.9075 68.0204 22.4336C68.6037 21.9233 69.0046 21.3218 69.2233 20.6292C69.4421 19.9366 69.5514 19.1529 69.5514 18.278C69.5514 17.4032 69.4421 16.6194 69.2233 15.9269C69.0046 15.2343 68.6037 14.651 68.0204 14.1771C67.4736 13.6668 66.7264 13.2841 65.7786 13.0289C64.8673 12.7737 63.7008 12.6461 62.2792 12.6461H56.2646V23.9099ZM48.7189 46V6.52216H63.154C65.2683 6.52216 67.182 6.7591 68.8953 7.23298C70.645 7.67041 72.1213 8.38123 73.3242 9.36544C74.5272 10.3132 75.4567 11.5343 76.1128 13.0289C76.769 14.487 77.097 16.2367 77.097 18.278C77.097 20.3194 76.769 22.0873 76.1128 23.5818C75.4567 25.0764 74.5272 26.2975 73.3242 27.2453C72.1213 28.1931 70.645 28.9039 68.8953 29.3778C67.182 29.8152 65.2683 30.0339 63.154 30.0339H56.2646V46H48.7189ZM103.306 17.8953C102.395 15.9269 101.338 14.5052 100.135 13.6304C98.9317 12.7555 97.346 12.3181 95.3776 12.3181C93.9924 12.3181 92.7712 12.6644 91.7141 13.357C90.6935 14.0131 89.8368 14.9609 89.1442 16.2002C88.4516 17.4396 87.9231 18.9524 87.5586 20.7386C87.2305 22.4883 87.0665 24.4567 87.0665 26.6438C87.0665 30.7994 87.7955 34.0983 89.2536 36.5406C90.7481 38.9829 92.8077 40.2041 95.4323 40.2041C97.911 40.2041 99.8794 39.475 101.338 38.0169C102.832 36.5589 103.616 34.6816 103.689 32.3851H96.1978V26.0424H110.961V46H105.493V41.9538C103.889 43.7035 102.285 44.9064 100.681 45.5626C99.1139 46.2187 97.2913 46.5468 95.2135 46.5468C92.5161 46.5468 90.1831 46.0547 88.2147 45.0705C86.2463 44.0498 84.6242 42.6646 83.3483 40.9149C82.0725 39.1287 81.1065 37.051 80.4504 34.6816C79.8307 32.2757 79.5208 29.6694 79.5208 26.8625C79.5208 24.3473 79.776 21.8504 80.2863 19.3716C80.8331 16.8564 81.7444 14.6146 83.0203 12.6461C84.2961 10.6777 85.9729 9.07382 88.0507 7.83444C90.1649 6.59506 92.8077 5.97537 95.979 5.97537C97.9475 5.97537 99.7154 6.23054 101.283 6.74087C102.85 7.2512 104.217 7.96202 105.384 8.87333C106.587 9.74819 107.589 10.8053 108.391 12.0447C109.193 13.2476 109.831 14.5781 110.305 16.0362L103.306 17.8953Z" fill="#005B97"/>
<rect width="3.50785" height="42.7958" transform="translate(120.67 4.5603)" fill="#FCB040"/>
<path d="M134.024 15.0002V5.40902H136.601L138.447 12.1043H138.474L140.334 5.40902H142.937V15.0002H141.343V7.4548H141.317L139.165 15.0002H137.77L135.644 7.4548H135.618V15.0002H134.024ZM147.414 11.6925C147.14 11.7456 146.865 11.8032 146.591 11.8652C146.316 11.9272 146.068 12.0113 145.847 12.1176C145.625 12.215 145.444 12.3434 145.302 12.5028C145.169 12.6622 145.103 12.8615 145.103 13.1006C145.103 13.3574 145.178 13.5567 145.329 13.6984C145.479 13.8401 145.67 13.9109 145.9 13.9109C146.033 13.9109 146.17 13.8888 146.312 13.8445C146.453 13.7914 146.591 13.7294 146.723 13.6585C146.856 13.5877 146.98 13.508 147.095 13.4194C147.219 13.3309 147.326 13.2512 147.414 13.1803V11.6925ZM147.587 15.0002L147.481 14.4025C147.144 14.6327 146.808 14.8143 146.471 14.9471C146.143 15.0711 145.763 15.1331 145.329 15.1331C145.019 15.1331 144.744 15.0844 144.505 14.987C144.275 14.8807 144.08 14.7434 143.921 14.5751C143.77 14.398 143.655 14.2032 143.575 13.9906C143.495 13.7692 143.456 13.539 143.456 13.2999C143.456 12.5117 143.779 11.905 144.425 11.4799C145.072 11.046 146.068 10.7493 147.414 10.5899V10.0054C147.414 9.73968 147.317 9.53599 147.122 9.39429C146.936 9.2526 146.697 9.18175 146.405 9.18175C146.015 9.18175 145.705 9.27031 145.475 9.44743C145.245 9.6157 145.05 9.81053 144.89 10.0319L143.828 9.2216C143.934 9.03562 144.08 8.86735 144.266 8.7168C144.452 8.55739 144.66 8.42012 144.89 8.30499C145.129 8.18986 145.377 8.10129 145.634 8.0393C145.891 7.97731 146.148 7.95074 146.405 7.9596C146.865 7.96845 147.264 8.02159 147.6 8.11901C147.937 8.21642 148.211 8.37584 148.424 8.59724C148.645 8.80979 148.805 9.09318 148.902 9.44743C149.008 9.80168 149.062 10.2356 149.062 10.7493V14.0039C149.062 14.181 149.07 14.3537 149.088 14.522C149.106 14.6903 149.141 14.8497 149.194 15.0002H147.587ZM151.147 11.4135L149.194 8.09244H151.014L151.984 10.0054L152.967 8.09244H154.747L152.808 11.4135L154.907 15.0002H153.153L151.997 12.8482L150.881 15.0002H149.115L151.147 11.4135Z" fill="black"/>
<path d="M135.684 25.7748H137.145C137.491 25.7748 137.774 25.7438 137.996 25.6818C138.226 25.6198 138.407 25.5312 138.54 25.4161C138.682 25.2921 138.779 25.146 138.833 24.9777C138.886 24.8094 138.912 24.619 138.912 24.4065C138.912 24.1939 138.886 24.0035 138.833 23.8353C138.779 23.667 138.682 23.5253 138.54 23.4102C138.407 23.2862 138.226 23.1932 137.996 23.1312C137.774 23.0692 137.491 23.0382 137.145 23.0382H135.684V25.7748ZM133.851 31.1416V21.5504H137.358C137.872 21.5504 138.337 21.6079 138.753 21.7231C139.178 21.8293 139.537 22.002 139.829 22.2412C140.121 22.4714 140.347 22.7681 140.506 23.1312C140.666 23.4855 140.745 23.9105 140.745 24.4065C140.745 24.9024 140.666 25.332 140.506 25.6951C140.347 26.0582 140.121 26.3548 139.829 26.5851C139.537 26.8154 139.178 26.9881 138.753 27.1032C138.337 27.2095 137.872 27.2626 137.358 27.2626H135.684V31.1416H133.851ZM145.16 26.8375C145.142 26.3593 145.014 25.9873 144.775 25.7216C144.545 25.4559 144.23 25.3231 143.832 25.3231C143.433 25.3231 143.114 25.4559 142.875 25.7216C142.645 25.9873 142.521 26.3593 142.503 26.8375H145.16ZM142.503 27.9534C142.521 28.6707 142.667 29.1844 142.942 29.4944C143.216 29.7955 143.548 29.946 143.938 29.946C144.319 29.946 144.62 29.8707 144.841 29.7202C145.063 29.5608 145.275 29.3615 145.479 29.1224L146.675 29.8663C146.356 30.3623 145.957 30.7209 145.479 30.9423C145.01 31.1637 144.443 31.2744 143.779 31.2744C143.327 31.2744 142.92 31.1903 142.556 31.022C142.202 30.8538 141.897 30.6147 141.64 30.3047C141.392 29.9947 141.197 29.6183 141.055 29.1755C140.923 28.7327 140.856 28.2368 140.856 27.6877C140.856 27.1386 140.923 26.6427 141.055 26.1999C141.197 25.7571 141.396 25.3807 141.653 25.0707C141.91 24.7607 142.224 24.5216 142.596 24.3534C142.968 24.1851 143.389 24.101 143.858 24.101C144.31 24.101 144.709 24.1895 145.054 24.3666C145.408 24.5349 145.705 24.7652 145.944 25.0574C146.183 25.3497 146.365 25.6906 146.489 26.0803C146.613 26.4611 146.675 26.8596 146.675 27.2759V27.9534H142.503ZM147.392 31.1416V24.2338H148.906V25.4161H148.933C149.137 24.9999 149.385 24.681 149.677 24.4596C149.978 24.2382 150.376 24.1187 150.872 24.101V25.8412C150.828 25.8323 150.784 25.8279 150.74 25.8279C150.695 25.8279 150.642 25.8279 150.58 25.8279C150.376 25.8279 150.182 25.881 149.996 25.9873C149.81 26.0847 149.646 26.1999 149.504 26.3327C149.362 26.4567 149.247 26.5807 149.159 26.7047C149.079 26.8198 149.039 26.8995 149.039 26.9438V31.1416H147.392ZM153.304 25.5622V31.1416H151.656V25.5622H150.7V24.2338H151.643V23.3836C151.643 23.0116 151.678 22.7017 151.749 22.4537C151.829 22.1969 151.949 21.9932 152.108 21.8426C152.267 21.6921 152.471 21.5858 152.719 21.5238C152.967 21.453 153.259 21.4175 153.596 21.4175H154.685V22.746H154.233C153.888 22.746 153.645 22.8035 153.503 22.9187C153.37 23.0338 153.304 23.2242 153.304 23.4899V24.2338H154.698V25.5622H153.304ZM159.109 27.6877C159.109 26.9084 158.998 26.3371 158.777 25.974C158.555 25.6109 158.214 25.4294 157.754 25.4294C157.293 25.4294 156.952 25.6109 156.731 25.974C156.51 26.3371 156.399 26.9084 156.399 27.6877C156.399 28.467 156.51 29.0383 156.731 29.4014C156.952 29.7645 157.293 29.946 157.754 29.946C158.214 29.946 158.555 29.7645 158.777 29.4014C158.998 29.0383 159.109 28.467 159.109 27.6877ZM154.752 27.6877C154.752 27.1386 154.818 26.6427 154.951 26.1999C155.093 25.7571 155.292 25.3807 155.549 25.0707C155.806 24.7607 156.12 24.5216 156.492 24.3534C156.864 24.1851 157.284 24.101 157.754 24.101C158.223 24.101 158.644 24.1851 159.016 24.3534C159.388 24.5216 159.702 24.7607 159.959 25.0707C160.216 25.3807 160.411 25.7571 160.544 26.1999C160.685 26.6427 160.756 27.1386 160.756 27.6877C160.756 28.2368 160.685 28.7327 160.544 29.1755C160.411 29.6183 160.216 29.9947 159.959 30.3047C159.702 30.6147 159.388 30.8538 159.016 31.022C158.644 31.1903 158.223 31.2744 157.754 31.2744C157.284 31.2744 156.864 31.1903 156.492 31.022C156.12 30.8538 155.806 30.6147 155.549 30.3047C155.292 29.9947 155.093 29.6183 154.951 29.1755C154.818 28.7327 154.752 28.2368 154.752 27.6877ZM161.287 31.1416V24.2338H162.802V25.4161H162.828C163.032 24.9999 163.28 24.681 163.572 24.4596C163.873 24.2382 164.272 24.1187 164.768 24.101V25.8412C164.724 25.8323 164.679 25.8279 164.635 25.8279C164.591 25.8279 164.538 25.8279 164.476 25.8279C164.272 25.8279 164.077 25.881 163.891 25.9873C163.705 26.0847 163.541 26.1999 163.4 26.3327C163.258 26.4567 163.143 26.5807 163.054 26.7047C162.975 26.8198 162.935 26.8995 162.935 26.9438V31.1416H161.287ZM165.286 31.1416V24.2338H166.787V24.9777C167.097 24.6943 167.403 24.4773 167.704 24.3268C168.005 24.1762 168.39 24.101 168.86 24.101C169.223 24.101 169.559 24.1851 169.869 24.3534C170.179 24.5216 170.409 24.774 170.56 25.1106C170.702 24.9689 170.852 24.836 171.012 24.712C171.171 24.588 171.344 24.4818 171.53 24.3932C171.725 24.3046 171.937 24.2338 172.167 24.1807C172.398 24.1275 172.654 24.101 172.938 24.101C173.115 24.101 173.301 24.132 173.496 24.1939C173.699 24.2559 173.885 24.3666 174.054 24.526C174.222 24.6766 174.359 24.8892 174.466 25.1637C174.581 25.4294 174.638 25.7659 174.638 26.1733V31.1416H172.991V26.3194C172.991 26.036 172.929 25.8235 172.805 25.6818C172.681 25.5312 172.468 25.4471 172.167 25.4294C171.955 25.4294 171.72 25.5091 171.463 25.6685C171.206 25.8279 170.981 25.9962 170.786 26.1733V31.1416H169.139V26.3194C169.139 26.036 169.077 25.8235 168.953 25.6818C168.829 25.5312 168.616 25.4471 168.315 25.4294C168.102 25.4294 167.868 25.5091 167.611 25.6685C167.354 25.8279 167.128 25.9962 166.933 26.1733V31.1416H165.286ZM179.168 27.8338C178.894 27.887 178.619 27.9445 178.345 28.0065C178.07 28.0685 177.822 28.1526 177.601 28.2589C177.379 28.3563 177.198 28.4848 177.056 28.6442C176.923 28.8036 176.857 29.0028 176.857 29.242C176.857 29.4988 176.932 29.698 177.083 29.8397C177.233 29.9814 177.424 30.0523 177.654 30.0523C177.787 30.0523 177.924 30.0302 178.066 29.9859C178.207 29.9327 178.345 29.8707 178.477 29.7999C178.61 29.729 178.734 29.6493 178.849 29.5608C178.973 29.4722 179.08 29.3925 179.168 29.3217V27.8338ZM179.341 31.1416L179.235 30.5438C178.898 30.7741 178.562 30.9556 178.225 31.0885C177.897 31.2125 177.517 31.2744 177.083 31.2744C176.773 31.2744 176.498 31.2257 176.259 31.1283C176.029 31.022 175.834 30.8848 175.675 30.7165C175.524 30.5394 175.409 30.3445 175.329 30.132C175.249 29.9106 175.21 29.6803 175.21 29.4412C175.21 28.653 175.533 28.0464 176.179 27.6213C176.826 27.1873 177.822 26.8906 179.168 26.7312V26.1467C179.168 25.881 179.071 25.6774 178.876 25.5357C178.69 25.394 178.451 25.3231 178.159 25.3231C177.769 25.3231 177.459 25.4117 177.229 25.5888C176.999 25.7571 176.804 25.9519 176.644 26.1733L175.582 25.363C175.688 25.177 175.834 25.0087 176.02 24.8582C176.206 24.6987 176.414 24.5615 176.644 24.4463C176.883 24.3312 177.131 24.2427 177.388 24.1807C177.645 24.1187 177.902 24.0921 178.159 24.101C178.619 24.1098 179.018 24.1629 179.354 24.2604C179.691 24.3578 179.965 24.5172 180.178 24.7386C180.399 24.9511 180.559 25.2345 180.656 25.5888C180.762 25.943 180.816 26.377 180.816 26.8906V30.1453C180.816 30.3224 180.824 30.4951 180.842 30.6634C180.86 30.8316 180.895 30.991 180.948 31.1416H179.341ZM181.931 31.1416V24.2338H183.446V24.9777C183.756 24.7652 184.083 24.5659 184.429 24.3799C184.783 24.1939 185.164 24.101 185.571 24.101C186.262 24.101 186.776 24.3091 187.112 24.7253C187.449 25.1416 187.617 25.7039 187.617 26.4124V31.1416H185.97V26.6515C185.97 26.1822 185.899 25.8633 185.757 25.6951C185.616 25.5179 185.403 25.4294 185.12 25.4294C184.757 25.4294 184.442 25.5135 184.176 25.6818C183.92 25.8412 183.72 26.0006 183.579 26.16V31.1416H181.931ZM192.607 26.4788C192.475 26.1866 192.315 25.9386 192.129 25.7349C191.943 25.5312 191.651 25.4294 191.252 25.4294C190.792 25.4294 190.451 25.6109 190.23 25.974C190.008 26.3371 189.897 26.9084 189.897 27.6877C189.897 28.467 190.008 29.0383 190.23 29.4014C190.46 29.7645 190.819 29.946 191.306 29.946C191.669 29.946 191.961 29.8397 192.182 29.6272C192.404 29.4147 192.599 29.1534 192.767 28.8434L194.016 29.5475C193.679 30.1674 193.294 30.6147 192.86 30.8892C192.426 31.1549 191.89 31.2833 191.252 31.2744C190.783 31.2744 190.362 31.1903 189.99 31.022C189.619 30.8538 189.304 30.6147 189.047 30.3047C188.79 29.9947 188.591 29.6183 188.45 29.1755C188.317 28.7327 188.25 28.2368 188.25 27.6877C188.25 27.1386 188.317 26.6427 188.45 26.1999C188.591 25.7571 188.79 25.3807 189.047 25.0707C189.304 24.7607 189.619 24.5216 189.99 24.3534C190.362 24.1851 190.783 24.101 191.252 24.101C191.908 24.101 192.475 24.2648 192.953 24.5925C193.44 24.9113 193.781 25.363 193.976 25.9475L192.607 26.4788ZM198.665 26.8375C198.647 26.3593 198.519 25.9873 198.28 25.7216C198.05 25.4559 197.735 25.3231 197.337 25.3231C196.938 25.3231 196.619 25.4559 196.38 25.7216C196.15 25.9873 196.026 26.3593 196.008 26.8375H198.665ZM196.008 27.9534C196.026 28.6707 196.172 29.1844 196.447 29.4944C196.721 29.7955 197.053 29.946 197.443 29.946C197.824 29.946 198.125 29.8707 198.346 29.7202C198.568 29.5608 198.78 29.3615 198.984 29.1224L200.179 29.8663C199.861 30.3623 199.462 30.7209 198.984 30.9423C198.515 31.1637 197.948 31.2744 197.284 31.2744C196.832 31.2744 196.424 31.1903 196.061 31.022C195.707 30.8538 195.402 30.6147 195.145 30.3047C194.897 29.9947 194.702 29.6183 194.56 29.1755C194.427 28.7327 194.361 28.2368 194.361 27.6877C194.361 27.1386 194.427 26.6427 194.56 26.1999C194.702 25.7571 194.901 25.3807 195.158 25.0707C195.415 24.7607 195.729 24.5216 196.101 24.3534C196.473 24.1851 196.894 24.101 197.363 24.101C197.815 24.101 198.213 24.1895 198.559 24.3666C198.913 24.5349 199.21 24.7652 199.449 25.0574C199.688 25.3497 199.87 25.6906 199.994 26.0803C200.117 26.4611 200.179 26.8596 200.179 27.2759V27.9534H196.008Z" fill="black"/>
<path d="M139.125 40.4549C138.903 39.9766 138.647 39.6312 138.354 39.4187C138.062 39.2061 137.677 39.0999 137.199 39.0999C136.862 39.0999 136.565 39.184 136.309 39.3523C136.061 39.5117 135.852 39.7419 135.684 40.043C135.516 40.3442 135.388 40.7117 135.299 41.1456C135.219 41.5707 135.179 42.049 135.179 42.5803C135.179 43.5899 135.357 44.3914 135.711 44.9848C136.074 45.5781 136.574 45.8748 137.212 45.8748C137.814 45.8748 138.292 45.6977 138.647 45.3435C139.01 44.9892 139.2 44.5331 139.218 43.9752H137.398V42.4342H140.985V47.283H139.656V46.2999C139.267 46.725 138.877 47.0173 138.487 47.1767C138.106 47.3361 137.664 47.4158 137.159 47.4158C136.503 47.4158 135.937 47.2962 135.458 47.0571C134.98 46.8092 134.586 46.4726 134.276 46.0475C133.966 45.6136 133.731 45.1088 133.572 44.5331C133.421 43.9486 133.346 43.3154 133.346 42.6335C133.346 42.0224 133.408 41.4158 133.532 40.8135C133.665 40.2025 133.886 39.6578 134.196 39.1796C134.506 38.7013 134.914 38.3117 135.419 38.0106C135.932 37.7094 136.574 37.5589 137.345 37.5589C137.823 37.5589 138.252 37.6209 138.633 37.7449C139.014 37.8689 139.346 38.0416 139.63 38.263C139.922 38.4755 140.165 38.7323 140.36 39.0334C140.555 39.3257 140.71 39.6489 140.825 40.0032L139.125 40.4549ZM142.021 47.283V40.3752H143.535V41.5575H143.562C143.765 41.1412 144.013 40.8224 144.306 40.601C144.607 40.3796 145.005 40.26 145.501 40.2423V41.9825C145.457 41.9737 145.413 41.9693 145.368 41.9693C145.324 41.9693 145.271 41.9693 145.209 41.9693C145.005 41.9693 144.81 42.0224 144.624 42.1287C144.438 42.2261 144.275 42.3412 144.133 42.4741C143.991 42.598 143.876 42.722 143.787 42.846C143.708 42.9612 143.668 43.0409 143.668 43.0851V47.283H142.021ZM149.845 43.8291C149.845 43.0497 149.734 42.4785 149.513 42.1154C149.292 41.7523 148.951 41.5707 148.49 41.5707C148.03 41.5707 147.689 41.7523 147.467 42.1154C147.246 42.4785 147.135 43.0497 147.135 43.8291C147.135 44.6084 147.246 45.1796 147.467 45.5427C147.689 45.9058 148.03 46.0874 148.49 46.0874C148.951 46.0874 149.292 45.9058 149.513 45.5427C149.734 45.1796 149.845 44.6084 149.845 43.8291ZM145.488 43.8291C145.488 43.28 145.554 42.784 145.687 42.3412C145.829 41.8984 146.028 41.522 146.285 41.2121C146.542 40.9021 146.856 40.663 147.228 40.4947C147.6 40.3264 148.021 40.2423 148.49 40.2423C148.96 40.2423 149.38 40.3264 149.752 40.4947C150.124 40.663 150.439 40.9021 150.695 41.2121C150.952 41.522 151.147 41.8984 151.28 42.3412C151.422 42.784 151.492 43.28 151.492 43.8291C151.492 44.3781 151.422 44.8741 151.28 45.3169C151.147 45.7597 150.952 46.1361 150.695 46.4461C150.439 46.756 150.124 46.9951 149.752 47.1634C149.38 47.3317 148.96 47.4158 148.49 47.4158C148.021 47.4158 147.6 47.3317 147.228 47.1634C146.856 46.9951 146.542 46.756 146.285 46.4461C146.028 46.1361 145.829 45.7597 145.687 45.3169C145.554 44.8741 145.488 44.3781 145.488 43.8291ZM157.816 40.3752V47.283H156.301V46.539C155.991 46.7516 155.659 46.9509 155.305 47.1368C154.96 47.3228 154.583 47.4158 154.176 47.4158C153.485 47.4158 152.971 47.2077 152.635 46.7914C152.298 46.3752 152.13 45.8128 152.13 45.1043V40.3752H153.777V44.8652C153.777 45.3346 153.848 45.6579 153.99 45.835C154.132 46.0032 154.344 46.0874 154.628 46.0874C154.991 46.0874 155.301 46.0077 155.557 45.8483C155.823 45.68 156.027 45.5162 156.168 45.3567V40.3752H157.816ZM160.628 45.5029C160.796 45.6534 160.982 45.7907 161.185 45.9147C161.398 46.0298 161.637 46.0874 161.903 46.0874C162.399 46.0874 162.78 45.897 163.045 45.5162C163.311 45.1265 163.444 44.5641 163.444 43.8291C163.444 43.094 163.311 42.5361 163.045 42.1552C162.78 41.7656 162.399 41.5707 161.903 41.5707C161.726 41.5707 161.575 41.5929 161.451 41.6372C161.327 41.6726 161.216 41.7213 161.119 41.7833C161.03 41.8364 160.946 41.9028 160.867 41.9825C160.796 42.0534 160.716 42.1198 160.628 42.1818V45.5029ZM158.98 40.3752H160.561V41.0128C160.8 40.7825 161.061 40.5966 161.345 40.4549C161.628 40.3132 161.956 40.2423 162.328 40.2423C162.788 40.2423 163.191 40.3397 163.537 40.5346C163.882 40.7205 164.17 40.9818 164.4 41.3183C164.631 41.6549 164.803 42.0534 164.918 42.5139C165.033 42.9744 165.091 43.4748 165.091 44.015C165.091 44.4401 165.029 44.8564 164.905 45.2638C164.79 45.6711 164.613 46.0342 164.374 46.3531C164.143 46.6719 163.856 46.9287 163.51 47.1235C163.165 47.3184 162.771 47.4158 162.328 47.4158C162.186 47.4158 162.036 47.3937 161.876 47.3494C161.717 47.314 161.557 47.2652 161.398 47.2033C161.247 47.1324 161.106 47.0483 160.973 46.9509C160.84 46.8534 160.734 46.7516 160.654 46.6453H160.628V49.807H158.98V40.3752Z" fill="black"/>
</svg>
